<?xml version="1.0" standalone="no"?><!DOCTYPE svg PUBLIC "-//W3C//DTD SVG 1.1//EN" "http://www.w3.org/Graphics/SVG/1.1/DTD/svg11.dtd" ><svg xmlns="http://www.w3.org/2000/svg"><metadata></metadata><defs><font id="HappyZcool-2016" horiz-adv-x="1000"><font-face font-family="HappyZcool-2016" font-weight="400" font-stretch="normal" units-per-em="1000" panose-1="2 1 6 0 3 1 1 1 1 1" ascent="859" descent="-141" x-height="1" bbox="-43 -142 984 815" underline-thickness="46" underline-position="-85" unicode-range="U+0021-ff0c" /><missing-glyph horiz-adv-x="1000" d="M155 234 l-106 13 l66 514 l107 -16 l-67 -511 ZM43 -34 l-13 159 l106 9 l13 -160 l-106 -8 Z" /><glyph glyph-name="exclam" unicode="!" d="M155 234 l-106 13 l66 514 l107 -16 l-67 -511 ZM43 -34 l-13 159 l106 9 l13 -160 l-106 -8 Z" /><glyph glyph-name="comma" unicode="," d="M90 -103 l-70 37 l73 130 l-67 28 l30 75 l109 -44 l20 -57 l-95 -169 Z" /><glyph glyph-name="period" unicode="." d="M159 -48 l-139 49 l50 138 l139 -48 l-50 -139 Z" /><glyph glyph-name="zero" unicode="0" d="M108 135 l377 -47 l-1 496 l-280 48 l-96 -497 ZM520 2 l-466 58 l-34 48 l113 577 l46 33 l352 -60 l34 -40 l1 -576 l-46 -40 Z" /><glyph glyph-name="one" unicode="1" d="M280 -19 l-80 6 l46 634 l-177 -133 l-49 65 l250 185 l64 -35 l-54 -722 Z" /><glyph glyph-name="two" unicode="2" d="M86 -29 l-33 67 l415 466 l-190 159 l-213 -145 l-45 66 l238 163 l48 -3 l245 -205 l4 -58 l-372 -419 l423 47 l9 -80 l-529 -58 Z" /><glyph glyph-name="three" unicode="3" d="M460 -18 l-440 95 l18 78 l410 -88 l100 186 l-283 70 l-15 71 l274 213 l-364 51 l11 80 l458 -64 l20 -72 l-284 -220 l254 -63 l25 -59 l-140 -258 l-44 -20 Z" /><glyph glyph-name="four" unicode="4" d="M525 177 l-17 -196 l-80 6 l16 189 l-385 -8 l-39 55 l204 515 l75 -29 l-181 -460 l333 7 l33 397 l81 -7 l-33 -388 l163 4 l3 -81 l-173 -4 Z" /><glyph glyph-name="five" unicode="5" d="M508 -12 l-488 107 l18 79 l453 -100 l95 240 l-387 41 l-35 48 l55 297 l40 33 l384 0 l0 -80 l-350 0 l-42 -222 l397 -42 l32 -55 l-126 -321 l-46 -25 Z" /><glyph glyph-name="six" unicode="6" d="M418 -15 l-375 137 l-23 56 l299 557 l71 -38 l-276 -515 l305 -112 l147 172 l-261 111 l31 75 l313 -133 l15 -64 l-203 -235 l-43 -11 Z" /><glyph glyph-name="nine" unicode="9" d="M334 -12 l-74 33 l255 567 l-277 60 l-124 -173 l234 -111 l-35 -73 l-278 133 l-15 60 l168 232 l41 17 l352 -77 l29 -56 l-276 -612 Z" /><glyph glyph-name="colon" unicode=":" d="M180 -57 l-154 44 l22 77 l155 -43 l-23 -78 ZM159 264 l-139 67 l35 72 l139 -66 l-35 -73 Z" /><glyph glyph-name="A" unicode="a" d="M240 269 l221 38 l17 -94 l-286 -48 l-86 -189 l-86 38 l333 728 l86 1 l304 -639 l-85 -41 l-262 548 l-156 -342 Z" /><glyph glyph-name="B" unicode="b" d="M114 640 l0 -557 l404 45 l-168 202 l1 60 l193 226 l-430 24 ZM73 -17 l-53 47 l0 660 l50 46 l574 -31 l32 -77 l-228 -269 l197 -238 l-31 -77 l-541 -61 Z" /><glyph glyph-name="C" unicode="c" d="M73 -4 l-53 51 l68 634 l53 42 l515 -76 l-13 -94 l-467 69 l-56 -526 l559 60 l10 -94 l-616 -66 Z" /><glyph glyph-name="D" unicode="d" d="M163 613 l-43 -504 l469 104 l-14 298 l-412 102 ZM78 3 l-58 50 l54 622 l59 41 l498 -121 l37 -44 l16 -373 l-36 -48 l-570 -127 Z" /><glyph glyph-name="E" unicode="e" d="M71 3 l-51 51 l48 617 l48 44 l504 -16 l-4 -94 l-458 14 l-15 -196 l433 7 l2 -95 l-443 -7 l-17 -227 l512 42 l8 -94 l-567 -46 Z" /><glyph glyph-name="F" unicode="f" d="M141 389 l434 7 l1 -93 l-442 -8 l-20 -282 l-94 7 l48 643 l47 43 l503 -16 l-3 -94 l-457 14 l-17 -221 Z" /><glyph glyph-name="G" unicode="g" d="M70 -6 l-50 50 l46 637 l50 44 l543 -36 l-6 -94 l-495 32 l-39 -537 l476 24 l-17 181 l-279 12 l4 95 l320 -15 l45 -42 l26 -271 l-44 -52 l-580 -28 Z" /><glyph glyph-name="H" unicode="h" d="M134 433 l419 37 l2 234 l94 -2 l-6 -687 l-94 1 l3 359 l-422 -36 l-16 -325 l-94 5 l34 687 l94 -5 l-14 -268 Z" /><glyph glyph-name="I" unicode="i" d="M114 14 l-94 5 l34 687 l95 -5 l-35 -687 Z" /><glyph glyph-name="K" unicode="k" d="M494 0 l-278 292 l5 70 l294 232 l59 -74 l-254 -201 l241 -254 l-67 -65 ZM114 -13 l-94 12 l96 734 l94 -11 l-96 -735 Z" /><glyph glyph-name="L" unicode="l" d="M535 3 l-470 13 l-45 53 l71 647 l94 -11 l-65 -596 l419 -13 l-4 -93 Z" /><glyph glyph-name="M" unicode="m" d="M691 29 l-91 501 l-181 -320 l-84 4 l-136 296 l-86 -481 l-93 17 l113 629 l88 11 l162 -349 l200 353 l87 -15 l114 -629 l-93 -17 Z" /><glyph glyph-name="N" unicode="n" d="M113 22 l-93 11 l79 641 l84 24 l403 -511 l0 507 l94 0 l0 -642 l-84 -29 l-417 527 l-66 -528 Z" /><glyph glyph-name="O" unicode="o" d="M119 105 l410 -5 l-19 515 l-355 -37 l-36 -473 ZM576 5 l-510 6 l-46 51 l45 564 l43 42 l442 45 l53 -46 l21 -614 l-48 -48 Z" /><glyph glyph-name="P" unicode="p" d="M114 -17 l-94 6 l45 704 l48 43 l493 0 l48 -42 l35 -351 l-45 -53 l-455 -29 l-6 94 l407 26 l-26 262 l-408 0 l-42 -660 Z" /><glyph glyph-name="Q" unicode="q" d="M643 -2 l-83 59 l-489 -39 l-51 51 l44 564 l42 42 l462 45 l51 -45 l20 -559 l59 -42 l-55 -76 ZM155 585 l-36 -469 l323 26 l-103 74 l55 77 l148 -107 l-16 435 l-371 -36 Z" /><glyph glyph-name="R" unicode="r" d="M114 10 l-94 5 l31 640 l45 45 l494 15 l48 -41 l42 -338 l-52 -52 l-79 8 l137 -242 l-81 -46 l-169 300 l-212 22 l10 94 l345 -36 l-29 236 l-407 -14 l-29 -596 Z" /><glyph glyph-name="S" unicode="s" d="M29 0 l-9 93 l559 49 l-45 203 l-433 -50 l-52 48 l14 333 l51 45 l527 -49 l-8 -94 l-478 44 l-10 -227 l420 47 l51 -36 l67 -296 l-43 -58 l-611 -52 Z" /><glyph glyph-name="T" unicode="t" d="M764 605 l-329 11 l-24 -621 l-95 3 l26 621 l-322 11 l4 95 l742 -27 l-2 -93 Z" /><glyph glyph-name="U" unicode="u" d="M534 10 l-459 33 l-44 47 l-11 598 l94 3 l11 -556 l370 -28 l53 601 l93 -8 l-56 -647 l-51 -43 Z" /><glyph glyph-name="V" unicode="v" d="M298 7 l-278 541 l84 44 l234 -458 l275 580 l85 -41 l-315 -665 l-85 -1 Z" /><glyph glyph-name="W" unicode="w" d="M268 30 l-92 2 l-156 625 l91 23 l117 -463 l135 429 l90 0 l122 -395 l163 439 l88 -33 l-211 -569 l-89 3 l-118 382 l-140 -443 Z" /><glyph glyph-name="X" unicode="x" d="M661 11 l-277 293 l-298 -294 l-66 67 l299 295 l-224 238 l69 63 l222 -235 l274 270 l66 -67 l-275 -271 l278 -294 l-68 -65 Z" /><glyph glyph-name="Y" unicode="y" d="M388 -22 l-94 1 l6 374 l16 33 l370 329 l63 -71 l-354 -314 l-7 -352 ZM258 421 l-238 257 l69 63 l237 -256 l-68 -64 Z" /><glyph glyph-name="Z" unicode="z" d="M59 10 l-39 80 l466 491 l-436 35 l9 95 l534 -45 l30 -79 l-449 -472 l520 45 l9 -94 l-644 -56 Z" /><glyph glyph-name="a" unicode="a" d="M605 6 l-100 28 l-18 21 l-413 -66 l-54 57 l58 229 l45 36 l316 0 l-21 156 l-360 -88 l-23 91 l411 101 l58 -40 l56 -415 l70 -20 l-25 -90 ZM129 94 l332 53 l-9 69 l-292 0 l-31 -122 Z" /><glyph glyph-name="b" unicode="b" d="M135 364 l-17 -252 l252 48 l14 181 l-249 23 ZM76 9 l-56 50 l38 572 l95 -6 l-12 -168 l297 -26 l43 -50 l-20 -264 l-37 -42 l-348 -66 Z" /><glyph glyph-name="c" unicode="c" d="M71 14 l-51 51 l46 440 l54 41 l321 -52 l-15 -93 l-271 44 l-36 -331 l334 40 l11 -94 l-393 -46 Z" /><glyph glyph-name="d" unicode="d" d="M153 347 l-32 -238 l310 33 l-11 162 l-267 43 ZM71 9 l-51 53 l46 345 l54 40 l294 -47 l-16 224 l95 6 l35 -526 l-42 -50 l-415 -45 Z" /><glyph glyph-name="e" unicode="e" d="M445 -12 l-387 72 l-38 53 l48 356 l42 40 l293 24 l46 -25 l85 -168 l-33 -67 l-311 -65 l-20 91 l251 54 l-42 83 l-224 -17 l-36 -275 l344 -64 l-18 -92 Z" /><glyph glyph-name="f" unicode="f" d="M228 223 l175 -16 l-8 -94 l-173 16 l-12 -187 l-94 6 l12 189 l-171 16 l9 94 l168 -16 l21 309 l27 40 l149 65 l37 -86 l-122 -54 l-18 -282 Z" /><glyph glyph-name="g" unicode="g" d="M160 499 l-37 -189 l235 50 l-5 120 l-193 19 ZM60 -57 l-17 92 l328 58 l-8 172 l-290 -61 l-56 55 l58 299 l51 38 l277 -26 l43 -44 l20 -471 l-39 -47 l-367 -65 Z" /><glyph glyph-name="h" unicode="h" d="M172 402 l223 52 l58 -41 l35 -392 l-94 -9 l-30 339 l-207 -50 l-43 -295 l-94 13 l104 695 l92 -13 l-44 -299 Z" /><glyph glyph-name="i" unicode="i" d="M75 474 l-30 112 l91 25 l30 -112 l-91 -25 ZM114 8 l-94 11 l49 397 l94 -11 l-49 -397 Z" /><glyph glyph-name="j" unicode="j" d="M161 496 l-97 100 l67 65 l98 -100 l-68 -65 ZM66 -142 l-46 81 l125 70 l-36 379 l94 8 l38 -408 l-23 -45 l-152 -85 Z" /><glyph glyph-name="k" unicode="k" d="M471 -7 l-246 215 l-1 68 l202 193 l65 -68 l-165 -157 l207 -180 l-62 -71 ZM113 19 l-93 20 l143 647 l92 -20 l-142 -647 Z" /><glyph glyph-name="l" unicode="l" d="M114 -9 l-94 13 l86 604 l93 -12 l-85 -605 Z" /><glyph glyph-name="m" unicode="m" d="M114 37 l-94 8 l40 417 l59 41 l218 -59 l211 59 l60 -44 l21 -416 l-94 -5 l-19 357 l-137 -37 l2 -316 l-93 -2 l-3 319 l-136 38 l-35 -360 Z" /><glyph glyph-name="n" unicode="n" d="M388 39 l-17 341 l-213 -34 l-44 -295 l-94 14 l50 329 l39 40 l300 47 l55 -44 l19 -393 l-95 -5 Z" /><glyph glyph-name="o" unicode="o" d="M118 145 l267 -15 l-7 279 l-243 -10 l-17 -254 ZM430 33 l-366 21 l-44 51 l24 343 l45 43 l332 14 l49 -46 l10 -378 l-50 -48 Z" /><glyph glyph-name="p" unicode="p" d="M120 -54 l-94 5 l35 591 l56 44 l312 -64 l36 -41 l32 -249 l-37 -53 l-268 -56 l-20 91 l227 49 l-23 173 l-225 46 l-31 -536 Z" /><glyph glyph-name="q" unicode="q" d="M452 -22 l-94 6 l36 496 l-274 -47 l8 -167 l197 -18 l-8 -94 l-239 22 l-43 44 l-11 250 l39 49 l375 64 l55 -50 l-41 -555 Z" /><glyph glyph-name="r" unicode="r" d="M35 5 l-15 527 l94 3 l3 -123 l228 108 l40 -87 l-265 -124 l10 -302 l-95 -2 Z" /><glyph glyph-name="s" unicode="s" d="M306 -21 l-286 53 l18 93 l252 -48 l74 128 l-298 42 l-40 52 l15 193 l44 43 l320 25 l6 -94 l-278 -21 l-9 -110 l321 -46 l35 -70 l-125 -218 l-49 -22 Z" /><glyph glyph-name="t" unicode="t" d="M321 369 l-23 -246 l196 -56 l-25 -90 l-235 66 l-34 50 l25 269 l-197 -14 l-8 95 l214 15 l10 105 l94 -9 l-8 -90 l225 16 l6 -93 l-240 -18 Z" /><glyph glyph-name="u" unicode="u" d="M499 26 l-108 64 l-316 -52 l-55 49 l24 404 l94 -5 l-20 -345 l251 40 l21 311 l95 -8 l-22 -327 l85 -51 l-49 -80 Z" /><glyph glyph-name="v" unicode="v" d="M254 34 l-83 13 l-151 490 l90 28 l123 -399 l255 354 l76 -55 l-310 -431 Z" /><glyph glyph-name="w" unicode="w" d="M269 70 l-88 1 l-161 425 l89 32 l117 -312 l102 246 l86 3 l104 -228 l140 275 l83 -42 l-182 -363 l-85 1 l-100 218 l-105 -256 Z" /><glyph glyph-name="x" unicode="x" d="M585 73 l-253 192 l-247 -235 l-65 67 l236 226 l-176 134 l58 75 l187 -143 l190 181 l65 -69 l-179 -170 l240 -183 l-56 -75 Z" /><glyph glyph-name="y" unicode="y" d="M95 -45 l-73 60 l169 205 l-169 205 l73 60 l158 -191 l197 239 l72 -60 l-427 -518 Z" /><glyph glyph-name="z" unicode="z" d="M68 13 l-40 77 l307 365 l-315 38 l11 93 l402 -47 l30 -78 l-290 -346 l307 25 l8 -95 l-420 -32 Z" /><glyph glyph-name="asciitilde" unicode="~" d="M468 146 l-312 81 l-83 -74 l-53 60 l99 88 l37 8 l317 -81 l115 63 l38 -72 l-128 -70 l-30 -3 Z" /><glyph glyph-name="uni3001" unicode="&#x3001;" d="M109 199 l4 12 q90 -20 139 -49 q49 -29 70.5 -52.5 q21.5 -23.5 27 -62.5 q5.5 -39 -23.5 -62.5 q-29 -23.5 -64.5 60.5 q-35.5 84 -152.5 154 Z" /><glyph glyph-name="uni3002" unicode="&#x3002;" d="M463 -48 l-139 49 l50 138 l139 -48 l-50 -139 Z" /><glyph glyph-name="uni4E00" unicode="&#x4e00;" d="M116 379 l761 54 l7 -94 l-760 -53 l-8 93 Z" /><glyph glyph-name="uni4E0A" unicode="&#x4e0a;" d="M92 72 l352 10 l-32 654 l95 4 l11 -242 l280 44 l15 -93 l-290 -47 l15 -317 l368 11 l2 -94 l-813 -23 l-3 93 Z" /><glyph glyph-name="uni4E0B" unicode="&#x4e0b;" d="M403 -20 l38 656 l-348 -10 l-3 94 l816 23 l4 -93 l-373 -11 l-39 -664 l-95 5 ZM575 432 l66 68 l222 -222 l-67 -66 l-221 220 Z" /><glyph glyph-name="uni4E0D" unicode="&#x4e0d;" d="M115 739 l775 19 l2 -94 l-257 -6 l-158 -163 l91 -6 l-5 -76 l354 -132 l-32 -87 l-328 120 l-22 -351 l-94 6 l34 523 l-325 -337 l-68 65 l418 434 l-383 -9 l-2 94 Z" /><glyph glyph-name="uni4E2D" unicode="&#x4e2d;" d="M190 177 l-88 345 l45 59 l322 5 l3 177 l95 -1 l-3 -175 l288 5 l46 -59 l-76 -288 l-40 -35 l-225 -28 l-4 -227 l-93 1 l3 214 l-222 -28 l-51 35 ZM271 241 l193 23 l4 227 l-260 -4 l63 -246 ZM562 493 l-4 -217 l182 22 l51 199 l-229 -4 Z" /><glyph glyph-name="uni4E3A" unicode="&#x4e3a;" d="M519 547 l316 17 l50 -53 l-70 -534 l-51 -38 l-209 21 l9 92 l164 -17 l56 431 l-317 -17 l-269 -507 l-83 43 l244 458 l-238 -12 l-5 95 l295 15 l127 239 l82 -44 l-101 -189 ZM613 122 l-134 189 l77 54 l134 -189 l-77 -54 ZM266 552 l-81 160 l85 43 l80 -160 l-84 -43 Z" /><glyph glyph-name="uni4E4B" unicode="&#x4e4b;" d="M98 9 l510 498 l-456 41 l9 94 l254 -23 l-71 105 l78 54 l114 -169 l-1 -1 l183 -16 l29 -80 l-418 -409 l144 -65 l403 119 l26 -92 l-419 -122 l-32 2 l-195 87 l-92 -90 l-66 67 Z" /><glyph glyph-name="uni4E86" unicode="&#x4e86;" d="M307 52 l236 23 l-50 321 l12 39 l198 225 l-546 6 l1 94 l649 -8 l35 -77 l-252 -287 l53 -348 l-41 -55 l-286 -25 l-9 92 Z" /><glyph glyph-name="uni4E91" unicode="&#x4e91;" d="M417 389 l-174 -327 l466 81 l-43 79 l84 44 l148 -276 l-82 -45 l-60 111 l-591 -101 l-50 67 l191 360 l-219 -12 l-5 95 l830 47 l6 -94 l-501 -29 ZM186 672 l-1 94 l593 9 l2 -94 l-594 -9 Z" /><glyph glyph-name="uni4EA4" unicode="&#x4ea4;" d="M750 342 l-169 -120 l259 -159 l-50 -80 l-293 180 l-330 -235 l-55 76 l299 212 l-159 98 l-59 -63 l-68 65 l233 248 l69 -65 l-109 -115 l176 -108 l185 131 l-61 57 l64 70 l206 -191 l-63 -70 l-75 69 ZM141 581 l2 94 l306 -7 l-49 65 l73 58 l98 -125 l317 -7 l-2 -94 l-745 16 Z" /><glyph glyph-name="uni4EBA" unicode="&#x4eba;" d="M465 356 l65 68 l379 -356 l-65 -69 l-379 357 ZM91 9 l449 749 l80 -49 l-449 -748 l-80 48 Z" /><glyph glyph-name="uni4ECE" unicode="&#x4ece;" d="M648 391 l271 -275 l-68 -66 l-241 246 l-134 -341 l-87 35 l305 775 l87 -35 l-133 -339 ZM292 402 l173 -172 l-66 -68 l-139 138 l-89 -280 l-90 28 l226 713 l90 -28 l-105 -331 Z" /><glyph glyph-name="uni4EE5" unicode="&#x4ee5;" d="M404 -3 l346 761 l86 -40 l-159 -348 l223 -279 l-74 -59 l-193 242 l-143 -314 l-86 37 ZM101 28 l21 727 l94 -3 l-17 -617 l162 145 l63 -70 l-244 -218 l-79 36 ZM337 700 l87 38 l118 -263 l-86 -39 l-119 264 Z" /><glyph glyph-name="uni4EF6" unicode="&#x4ef6;" d="M337 455 l129 306 l88 -36 l-51 -119 l107 8 l5 136 l95 -4 l-5 -125 l141 10 l6 -93 l-150 -12 l-7 -201 l236 23 l9 -94 l-249 -24 l-9 -272 l-95 3 l9 260 l-250 -23 l-9 93 l262 25 l8 203 l-145 -11 l-38 -90 l-87 37 ZM61 471 l270 279 l68 -65 l-169 -175 l61 1 l10 -526 l-94 -1 l-11 492 l-67 -70 l-68 65 Z" /><glyph glyph-name="uni4F7F" unicode="&#x4f7f;" d="M718 278 l-3 -64 l-17 -35 l-28 -22 l246 -98 l-35 -88 l-295 118 l-151 -121 l-59 73 l109 89 l-97 39 l35 87 l146 -59 l52 43 l2 38 l-144 0 l-46 40 l-30 187 l48 55 l187 -11 l2 39 l-242 3 l1 95 l247 -3 l4 70 l94 -7 l-4 -64 l166 -2 l-1 -94 l-170 1 l-2 -44 l145 -8 l42 -59 l-44 -163 l-45 -35 l-113 0 ZM80 498 l221 232 l69 -65 l-106 -112 l66 -3 l-27 -575 l-94 5 l24 541 l-84 -88 l-69 65 ZM628 371 l5 84 l-128 8 l14 -92 l109 0 ZM728 449 l-5 -78 l72 0 l19 73 l-86 5 Z" /><glyph glyph-name="uni4F9B" unicode="&#x4f9b;" d="M356 -24 l103 250 l-142 -11 l-7 95 l120 9 l0 176 l-55 -8 l-15 94 l70 11 l0 141 l95 0 l0 -126 l153 23 l3 111 l95 -3 l-2 -93 l81 13 l15 -93 l-99 -16 l-4 -205 l158 12 l7 -94 l-367 -28 l-122 -294 l-87 36 ZM67 506 l239 274 l71 -63 l-98 -112 l-26 -649 l-95 4 l21 530 l-41 -47 l-71 63 ZM525 326 l147 11 l4 197 l-151 -24 l0 -184 ZM665 131 l68 66 l143 -149 l-69 -65 l-142 148 Z" /><glyph glyph-name="uni4FE1" unicode="&#x4fe1;" d="M426 -12 l-36 187 l46 55 l429 -2 l43 -60 l-52 -171 l-43 -32 l-338 -14 l-49 37 ZM82 530 l220 222 l68 -66 l-83 -84 l5 1 l55 -650 l-94 -8 l-50 574 l-55 -56 l-66 67 ZM343 638 l219 15 l-41 75 l81 45 l61 -108 l-10 -6 l257 18 l7 -95 l-567 -37 l-7 93 ZM406 356 l434 42 l10 -93 l-435 -43 l-9 94 ZM415 488 l435 45 l10 -93 l-435 -45 l-10 93 ZM511 46 l265 11 l24 78 l-307 1 l18 -90 Z" /><glyph glyph-name="uni4FEE" unicode="&#x4fee;" d="M411 547 l171 244 l77 -55 l-20 -29 l247 -85 l7 -85 l-91 -52 l140 -63 l-40 -86 l-200 91 l-189 -108 l-46 82 l130 74 l-34 16 l39 85 l95 -43 l60 34 l-175 60 l-94 -133 l-77 53 ZM58 536 l251 191 l58 -75 l-94 -71 l9 -596 l-94 -1 l-9 525 l-63 -48 l-58 75 ZM477 19 l381 116 l28 -91 l-383 -115 l-26 90 ZM316 124 l17 376 l94 -4 l-18 -376 l-93 4 ZM473 274 l325 80 l23 -92 l-325 -81 l-23 93 ZM536 166 l252 73 l26 -90 l-252 -74 l-26 91 Z" /><glyph glyph-name="uni50A8" unicode="&#x50a8;" d="M843 -65 l-240 0 l-48 43 l-8 102 l-43 -9 l-20 92 l57 11 l-3 43 l-13 -12 l-62 70 l130 119 l-87 -6 l-6 94 l119 8 l9 121 l-80 -16 l-18 92 l104 21 l4 53 l95 -6 l-2 -28 l94 19 l19 -91 l-120 -25 l-9 -125 l129 117 l64 -70 l-51 -46 l57 4 l6 -94 l-176 -12 l-68 -62 l179 3 l48 -49 l-14 -316 l-46 -45 ZM244 -33 l-95 8 l34 460 l-83 27 l-20 78 l236 243 l68 -66 l-184 -190 l48 -15 l32 -49 l-36 -496 ZM439 -44 l-118 47 l-27 55 l84 340 l-69 10 l12 93 l122 -18 l40 -57 l-88 -351 l79 -33 l-35 -86 ZM634 193 l149 30 l18 -92 l-160 -32 l5 -69 l152 0 l8 220 l-176 -3 l4 -54 ZM395 507 l-61 111 l82 45 l62 -110 l-83 -46 Z" /><glyph glyph-name="uni50CF" unicode="&#x50cf;" d="M678 337 l18 -68 l48 -35 l86 92 l68 -64 l-77 -83 l90 -63 l-55 -78 l-122 86 l22 -83 l-28 -57 l-135 -53 l-36 86 l98 39 l-12 45 l-237 -159 l-48 70 l261 176 l-7 26 l-245 -162 l-46 71 l268 179 l-11 39 l-6 0 l-182 -158 l-57 65 l113 97 l-11 1 l-45 46 l-4 120 l47 49 l286 0 l19 36 l-241 26 l-25 -37 l-77 52 l100 150 l78 -54 l-16 -23 l259 -28 l37 -69 l-28 -53 l57 0 l45 -59 l-36 -135 l-48 -35 l-165 5 ZM72 601 l261 143 l45 -82 l-94 -52 l24 -646 l-93 -3 l-24 598 l-74 -41 l-45 83 ZM717 467 l-40 -35 l133 -4 l10 39 l-103 0 ZM550 436 l36 31 l-104 0 l0 -29 l68 -2 Z" /><glyph glyph-name="uni514B" unicode="&#x514b;" d="M670 177 l0 -111 l227 -39 l-16 -93 l-266 46 l-39 46 l0 159 l-172 14 l-208 -264 l-74 59 l168 214 l-40 4 l-43 40 l-29 208 l43 54 l223 14 l-3 68 l-329 -37 l-10 93 l335 38 l-4 91 l95 4 l3 -84 l357 41 l10 -93 l-363 -42 l3 -72 l245 16 l50 -59 l-75 -283 l-48 -35 l-40 3 ZM677 271 l48 183 l-447 -32 l18 -120 l381 -31 Z" /><glyph glyph-name="uni5165" unicode="&#x5165;" d="M97 27 l334 439 l75 -58 l-334 -438 l-75 57 ZM427 703 l83 45 l392 -727 l-82 -45 l-393 727 Z" /><glyph glyph-name="uni5168" unicode="&#x5168;" d="M558 159 l5 -101 l317 12 l4 -95 l-765 -25 l-3 92 l352 13 l-5 106 l-192 5 l3 94 l185 -4 l-4 103 l-233 -3 l-1 77 l-84 -62 l-56 75 l435 324 l56 -77 l-328 -243 l299 5 l3 0 l197 3 l-249 119 l41 85 l385 -184 l-41 -85 l-123 59 l1 -89 l-207 -3 l4 -106 l203 -4 l-2 -95 l-197 4 Z" /><glyph glyph-name="uni516C" unicode="&#x516c;" d="M175 34 l214 481 l88 -39 l-180 -404 l386 54 l-54 110 l85 43 l140 -283 l-85 -42 l-41 81 l-503 -68 l-50 67 ZM653 722 l84 44 l190 -359 l-84 -45 l-190 360 ZM74 465 l229 270 l72 -61 l-228 -270 l-73 61 Z" /><glyph glyph-name="uni5171" unicode="&#x5171;" d="M106 21 l157 206 l-177 -8 l-5 95 l177 8 l8 184 l-105 -6 l-5 95 l114 7 l6 143 l95 -4 l-6 -133 l269 16 l10 132 l95 -7 l-9 -119 l102 6 l5 -95 l-115 -7 l-14 -189 l206 10 l5 -95 l-532 -27 l-205 -269 l-76 57 ZM353 327 l259 13 l14 188 l-265 -16 l-8 -185 ZM557 140 l55 76 l230 -166 l-56 -76 l-229 166 Z" /><glyph glyph-name="uni5173" unicode="&#x5173;" d="M469 256 l-335 -317 l-64 67 l257 244 l-211 -9 l-3 94 l311 13 l0 150 l-300 -28 l-9 94 l429 40 l159 173 l68 -63 l-88 -97 l153 15 l9 -93 l-326 -32 l0 -155 l407 18 l4 -94 l-461 -20 ZM859 -43 l-366 185 l42 84 l366 -185 l-42 -84 ZM353 599 l-120 111 l63 70 l120 -113 l-63 -68 Z" /><glyph glyph-name="uni5185" unicode="&#x5185;" d="M807 -61 l-212 82 l33 88 l154 -59 l33 488 l-296 -19 l-28 -63 l260 -187 l-55 -76 l-244 175 l-97 -222 l-87 38 l145 329 l-225 -14 l27 -556 l-94 -5 l-34 713 l94 4 l3 -62 l272 17 l75 171 l86 -38 l-56 -127 l302 19 l50 -50 l-41 -606 l-65 -40 Z" /><glyph glyph-name="uni5206" unicode="&#x5206;" d="M101 -4 l246 348 l-178 -14 l-7 95 l555 45 l51 -46 l20 -436 l-64 -45 l-247 90 l34 88 l178 -66 l-13 316 l-205 -17 l-292 -410 l-78 52 ZM48 508 l265 268 l68 -66 l-265 -269 l-68 67 ZM623 658 l56 76 l273 -204 l-58 -76 l-271 204 Z" /><glyph glyph-name="uni5212" unicode="&#x5212;" d="M321 457 l20 -164 l149 127 l62 -72 l-175 -148 l228 -210 l-63 -70 l-237 219 l-151 -129 l-61 72 l161 137 l-25 220 l-121 -24 l-19 92 l129 26 l-26 225 l93 10 l25 -217 l179 36 l19 -92 l-187 -38 ZM778 -47 l-63 70 l92 84 l10 661 l93 -1 l-8 -681 l-17 -34 l-107 -99 ZM645 167 l-41 458 l94 8 l41 -457 l-94 -9 ZM472 635 l-142 85 l49 80 l141 -85 l-48 -80 Z" /><glyph glyph-name="uni521B" unicode="&#x521b;" d="M763 -56 l-57 74 l119 91 l0 675 l93 0 l0 -699 l-17 -37 l-138 -104 ZM736 175 l-95 0 l0 310 l95 0 l0 -310 ZM562 -67 l-365 25 l-44 50 l22 383 l37 44 l316 66 l57 -46 l0 -232 l-48 -48 l-240 4 l1 94 l193 -3 l0 126 l-224 -46 l-17 -302 l258 -19 l-17 97 l92 18 l29 -156 l-50 -55 ZM152 455 l-70 64 l240 261 l61 8 l268 -179 l-53 -79 l-233 156 l-213 -231 Z" /><glyph glyph-name="uni521D" unicode="&#x521d;" d="M454 -27 l178 616 l-113 0 l0 95 l358 0 l47 -49 l-22 -621 l-61 -44 l-202 63 l27 90 l144 -44 l19 510 l-98 0 l-187 -642 l-90 26 ZM76 207 l259 345 l-179 -17 l-9 94 l86 7 l-54 87 l80 50 l79 -127 l93 8 l43 -75 l-143 -191 l9 0 l-1 -7 l1 1 l9 -10 l101 76 l56 -75 l-93 -70 l86 -93 l-70 -63 l-97 104 l-15 -294 l-93 5 l15 303 l-87 -115 l-76 57 Z" /><glyph glyph-name="uni529F" unicode="&#x529f;" d="M392 -19 l150 527 l-121 -19 l-15 94 l165 26 l44 154 l92 -26 l-32 -112 l180 29 l55 -50 l-49 -592 l-60 -43 l-206 58 l25 91 l151 -41 l39 475 l-164 -27 l-162 -569 l-92 25 ZM285 578 l3 -399 l83 43 l43 -84 l-278 -144 l-44 84 l102 52 l-4 462 l-99 16 l15 95 l285 -45 l-14 -94 l-92 14 Z" /><glyph glyph-name="uni52A1" unicode="&#x52a1;" d="M652 462 l239 -71 l-28 -90 l-354 106 l-383 -148 l-34 89 l269 103 l-90 28 l27 90 l207 -62 l193 74 l-377 47 l-129 -177 l-76 57 l214 293 l76 -55 l-22 -30 l512 -65 l11 -90 l-255 -99 ZM767 -82 l-175 70 l35 87 l118 -47 l15 117 l-361 -20 l-173 -204 l-71 62 l114 135 l-82 -4 l-5 94 l171 9 l125 148 l73 -61 l-68 -79 l328 18 l50 -53 l-30 -234 l-64 -38 Z" /><glyph glyph-name="uni52A9" unicode="&#x52a9;" d="M101 325 l32 0 l-23 319 l44 50 l255 16 l50 -48 l-4 -481 l38 11 l26 -91 l-429 -122 l-25 90 l85 24 l-10 137 l-37 0 l-2 95 ZM510 -10 l100 547 l-81 3 l2 94 l96 -4 l26 141 l92 -16 l-23 -128 l167 -6 l46 -50 l-46 -585 l-70 -37 l-153 83 l45 83 l89 -49 l36 463 l-131 4 l-102 -561 l-93 18 ZM234 231 l8 -111 l119 34 l2 278 l-142 -12 l6 -94 l112 1 l1 -95 l-106 -1 ZM208 604 l6 -91 l150 14 l1 85 l-157 -8 Z" /><glyph glyph-name="uni5356" unicode="&#x5356;" d="M797 632 l-252 8 l-11 -67 l339 13 l49 -52 l-18 -149 l-93 11 l11 94 l-743 -29 l-3 94 l362 14 l12 74 l-251 8 l4 94 l261 -9 l9 60 l94 -14 l-8 -49 l240 -7 l-2 -94 ZM414 146 l-228 -201 l-63 71 l132 117 l-174 -14 l-8 93 l154 13 l-68 59 l62 71 l136 -119 l16 1 l246 218 l63 -71 l-150 -133 l386 33 l9 -95 l-513 -43 ZM812 -76 l-235 138 l49 82 l233 -138 l-47 -82 ZM403 306 l-174 69 l35 87 l174 -68 l-35 -88 Z" /><glyph glyph-name="uni5361" unicode="&#x5361;" d="M89 393 l280 26 l23 374 l93 -5 l-8 -133 l301 22 l6 -95 l-313 -23 l-8 -131 l440 42 l9 -94 l-454 -42 l-24 -409 l-95 6 l24 394 l-265 -25 l-9 93 ZM534 175 l25 91 l310 -86 l-26 -90 l-309 85 Z" /><glyph glyph-name="uni5373" unicode="&#x5373;" d="M120 28 l19 462 l-53 3 l5 94 l51 -4 l5 108 l44 45 l290 19 l50 -43 l26 -304 l-36 -50 l-295 -70 l-1 5 l-9 -205 l156 44 l-52 128 l86 35 l125 -304 l-87 -36 l-36 89 l-228 -63 l-60 47 ZM584 723 l56 47 l236 -47 l39 -47 l-4 -403 l-42 -46 l-159 -17 l-11 93 l118 13 l3 322 l-141 28 l1 -716 l-94 0 l-2 773 ZM236 577 l154 -9 l-6 -93 l-151 9 l-4 -98 l231 55 l-19 217 l-202 -13 l-3 -68 Z" /><glyph glyph-name="uni53BB" unicode="&#x53bb;" d="M95 355 l332 31 l9 187 l-273 0 l0 93 l277 0 l5 97 l94 -4 l-4 -93 l283 0 l0 -93 l-287 0 l-8 -178 l373 35 l9 -94 l-490 -46 l-142 -220 l432 66 l-56 92 l81 48 l165 -271 l-80 -47 l-56 91 l-575 -86 l-46 71 l157 245 l-191 -18 l-9 94 Z" /><glyph glyph-name="uni53C2" unicode="&#x53c2;" d="M729 416 l196 -261 l-76 -56 l-230 306 l-300 -28 l-163 -280 l-81 47 l129 223 l-88 -8 l-8 93 l153 14 l32 55 l-93 -7 l-41 76 l144 186 l75 -57 l-79 -103 l365 29 l-39 47 l74 60 l95 -117 l-33 -76 l-353 -29 l-31 -53 l504 48 l9 -94 l-161 -15 ZM226 -56 l-22 91 l564 135 l21 -91 l-563 -135 ZM320 84 l-27 90 l338 106 l28 -90 l-339 -106 ZM316 222 l-26 92 l270 78 l26 -90 l-270 -80 Z" /><glyph glyph-name="uni53CA" unicode="&#x53ca;" d="M97 211 l212 443 l-104 -4 l-4 94 l542 22 l45 -66 l-86 -192 l181 -30 l19 -87 l-241 -164 l236 -169 l-55 -77 l-264 189 l-320 -217 l-53 77 l291 199 l-159 115 l55 76 l187 -134 l172 118 l-124 20 l-36 66 l80 179 l-256 -11 l-233 -487 l-85 40 Z" /><glyph glyph-name="uni53D1" unicode="&#x53d1;" d="M644 164 l269 -114 l-37 -88 l-317 135 l-213 -167 l-58 75 l172 135 l-104 45 l36 86 l153 -65 l117 92 l-292 56 l-198 -394 l-85 42 l241 478 l-175 2 l-42 66 l97 209 l85 -40 l-66 -141 l149 -1 l109 215 l83 -43 l-87 -173 l414 -3 l0 -95 l-462 3 l-18 -37 l366 -71 l20 -84 l-157 -123 ZM790 597 l-122 126 l69 65 l120 -126 l-67 -65 Z" /><glyph glyph-name="uni53E3" unicode="&#x53e3;" d="M726 149 l18 422 l-491 -4 l13 -418 l460 0 ZM221 54 l-48 46 l-15 512 l46 49 l589 5 l49 -49 l-24 -518 l-47 -45 l-550 0 Z" /><glyph glyph-name="uni53EF" unicode="&#x53ef;" d="M809 636 l0 -589 l-43 -46 l-385 -40 l-8 93 l342 35 l0 550 l-635 24 l4 95 l836 -31 l-2 -95 l-109 4 ZM215 163 l-56 339 l49 55 l385 -16 l43 -57 l-58 -297 l-43 -38 l-270 -25 l-50 39 ZM300 222 l193 17 l41 210 l-273 10 l39 -237 Z" /><glyph glyph-name="uni53F7" unicode="&#x53f7;" d="M374 314 l-37 -82 l400 5 l48 -56 l-39 -185 l-41 -36 l-255 -26 l-9 92 l220 23 l19 93 l-414 -5 l-44 67 l45 102 l-198 -16 l-8 94 l869 71 l9 -94 l-565 -47 ZM691 460 l-384 1 l-45 38 l-48 231 l47 56 l465 -12 l45 -54 l-34 -220 l-46 -40 ZM346 555 l304 0 l20 126 l-351 9 l27 -135 Z" /><glyph glyph-name="uni5408" unicode="&#x5408;" d="M321 -30 l-45 38 l-40 203 l43 57 l416 36 l51 -55 l-41 -256 l-49 -40 l-335 17 ZM86 436 l431 332 l58 -75 l-47 -36 l386 -157 l-35 -87 l-439 176 l-296 -228 l-58 75 ZM282 411 l413 63 l14 -94 l-412 -62 l-15 93 ZM619 49 l23 155 l-302 -26 l22 -115 l257 -14 Z" /><glyph glyph-name="uni540C" unicode="&#x540c;" d="M589 205 l13 160 l-228 -24 l13 -121 l202 -15 ZM341 129 l-44 42 l-21 208 l42 51 l331 35 l52 -51 l-22 -263 l-50 -42 l-288 20 ZM254 576 l425 45 l10 -94 l-425 -45 l-10 94 ZM629 50 l157 94 l-32 511 l-528 -11 l-14 -650 l-94 1 l14 696 l46 46 l620 13 l48 -44 l36 -585 l-24 -42 l-180 -110 l-49 81 Z" /><glyph glyph-name="uni5458" unicode="&#x5458;" d="M281 500 l-45 33 l-58 175 l41 61 l508 34 l50 -55 l-35 -208 l-46 -38 l-415 -2 ZM171 143 l-48 230 l43 57 l661 49 l50 -57 l-60 -272 l-91 20 l45 210 l-545 -40 l37 -178 l-92 -19 ZM498 193 l310 -193 l-50 -80 l-330 206 l-216 -209 l-65 67 l366 354 l65 -68 l-80 -77 ZM287 679 l27 -85 l342 1 l18 110 l-387 -26 Z" /><glyph glyph-name="uni548C" unicode="&#x548c;" d="M571 110 l0 468 l52 47 l258 -27 l42 -47 l0 -416 l-42 -47 l-258 -24 l-52 46 ZM130 659 l416 99 l21 -93 l-170 -41 l5 -117 l134 12 l7 -95 l-137 -12 l3 -66 l147 -56 l-34 -89 l-109 41 l12 -276 l-95 -3 l-13 301 l-165 -218 l-75 58 l227 300 l-171 -14 l-8 94 l182 15 l-5 103 l-150 -36 l-22 93 ZM666 163 l162 16 l0 329 l-162 17 l0 -362 Z" /><glyph glyph-name="uni5668" unicode="&#x5668;" d="M534 431 l159 -4 l-13 24 l83 46 l40 -73 l100 -2 l-1 -95 l-59 1 l20 -9 l-39 -83 l33 0 l47 -52 l-15 -187 l-49 -44 l-268 10 l-45 48 l0 178 l47 48 l242 -1 l-207 98 l-233 6 l-234 -134 l-48 81 l100 58 l-76 2 l1 95 l233 -6 l175 101 l47 -83 l-40 -23 ZM175 -59 l-51 46 l0 179 l45 47 l274 18 l50 -52 l-15 -182 l-44 -44 l-259 -12 ZM415 497 l-253 0 l-48 47 l0 180 l46 47 l259 8 l49 -48 l-5 -188 l-48 -46 ZM845 497 l-240 0 l-47 47 l0 180 l46 47 l254 8 l49 -51 l-14 -187 l-48 -44 ZM622 57 l176 -6 l7 90 l-183 1 l0 -85 ZM219 121 l0 -84 l168 9 l7 86 l-175 -11 ZM209 592 l160 0 l3 90 l-163 -4 l0 -86 ZM653 592 l149 0 l6 90 l-155 -4 l0 -86 Z" /><glyph glyph-name="uni5728" unicode="&#x5728;" d="M197 -75 l5 371 l-62 -94 l-79 53 l178 269 l-149 -10 l-6 93 l221 15 l115 174 l79 -52 l-75 -114 l510 36 l6 -95 l-582 -39 l-59 -90 l-8 -518 l-94 1 ZM350 294 l227 36 l-11 166 l94 6 l10 -157 l212 35 l15 -93 l-220 -36 l14 -203 l238 17 l7 -94 l-607 -44 l-7 95 l275 19 l-13 194 l-218 -35 l-16 94 Z" /><glyph glyph-name="uni5730" unicode="&#x5730;" d="M621 485 l-96 -32 l-16 -360 l318 -54 l14 67 l93 -17 l-22 -113 l-53 -38 l-407 68 l-40 49 l17 366 l-68 -23 l-30 90 l102 34 l11 228 l95 -4 l-9 -191 l88 30 l-4 196 l95 2 l4 -167 l123 42 l63 -43 l17 -399 l-30 -46 l-140 -56 l-35 89 l109 43 l-13 302 l-92 -31 l6 -233 l-95 -3 l-5 204 ZM66 580 l103 13 l0 163 l95 0 l0 -151 l90 11 l11 -93 l-101 -14 l0 -361 l87 55 l51 -82 l-272 -168 l-50 78 l89 56 l0 410 l-90 -12 l-13 95 Z" /><glyph glyph-name="uni5740" unicode="&#x5740;" d="M360 -44 l3 95 l98 -3 l-12 510 l95 2 l12 -514 l94 -3 l25 735 l95 -4 l-10 -268 l135 20 l14 -92 l-152 -24 l-13 -369 l171 -5 l-2 -93 l-553 13 ZM99 506 l100 10 l-1 130 l95 0 l0 -120 l70 7 l9 -94 l-78 -8 l1 -241 l83 40 l41 -84 l-294 -142 l-41 84 l118 57 l-3 277 l-90 -9 l-10 93 Z" /><glyph glyph-name="uni5883" unicode="&#x5883;" d="M350 290 l58 5 l-3 90 l45 49 l315 15 l50 -48 l0 -256 l-45 -47 l-43 -2 l21 -60 l133 62 l39 -85 l-181 -85 l-65 28 l-45 135 l-94 -5 l-124 -156 l-73 59 l96 121 l-20 19 l-3 72 l-53 -5 l-8 94 ZM370 690 l177 17 l-22 37 l80 49 l46 -76 l180 18 l9 -94 l-89 -9 l-30 -59 l168 12 l6 -94 l-537 -38 l-8 93 l127 9 l-19 48 l-79 -7 l-9 94 ZM90 511 l76 7 l5 152 l94 -2 l-4 -140 l48 5 l9 -94 l-60 -6 l-8 -277 l81 24 l28 -90 l-253 -75 l-26 90 l75 22 l9 297 l-64 -6 l-10 93 ZM502 303 l201 18 l7 -93 l-205 -19 l1 -30 l214 11 l0 163 l-219 -12 l1 -38 ZM577 562 l35 3 l28 56 l-84 -8 l21 -51 Z" /><glyph glyph-name="uni59CB" unicode="&#x59cb;" d="M93 -7 l77 159 l-85 46 l-23 53 l75 279 l-56 13 l21 91 l59 -14 l37 139 l90 -24 l-36 -135 l156 -35 l33 -66 l-148 -307 l170 -91 l-43 -83 l-168 90 l-74 -155 l-85 40 ZM518 16 l-58 275 l42 57 l364 28 l51 -53 l-37 -298 l-47 -41 l-267 -5 l-48 37 ZM445 480 l126 286 l86 -38 l-89 -202 l229 49 l-29 76 l88 35 l81 -208 l-89 -34 l-16 42 l-334 -71 l-53 65 ZM602 74 l189 4 l25 200 l-253 -20 l39 -184 ZM228 509 l-66 -246 l48 -26 l121 249 l-103 23 Z" /><glyph glyph-name="uni5B58" unicode="&#x5b58;" d="M97 660 l203 4 l65 127 l83 -42 l-43 -83 l497 10 l3 -95 l-548 -10 l-50 -97 l41 1 l8 -546 l-95 -1 l-5 446 l-120 -235 l-84 42 l199 388 l-151 -3 l-3 94 ZM397 259 l237 21 l84 160 l-253 -41 l-15 92 l347 57 l49 -68 l-100 -190 l192 18 l9 -94 l-233 -21 l22 -213 l-51 -52 l-210 18 l8 94 l153 -14 l-16 158 l-214 -19 l-9 94 Z" /><glyph glyph-name="uni5B89" unicode="&#x5b89;" d="M116 414 l130 6 l52 150 l90 -30 l-40 -115 l513 26 l5 -95 l-551 -28 l-29 -84 l175 -66 l324 143 l38 -86 l-237 -104 l299 -113 l-34 -88 l-388 147 l-338 -149 l-38 85 l252 111 l-129 49 l-28 58 l31 92 l-93 -4 l-4 95 ZM780 508 l27 105 l-600 -8 l11 -81 l-93 -13 l-19 135 l46 53 l300 4 l-22 50 l86 38 l38 -87 l314 4 l45 -59 l-42 -165 l-91 24 Z" /><glyph glyph-name="uni5B9A" unicode="&#x5b9a;" d="M92 599 l42 58 l268 21 l-35 58 l81 49 l59 -99 l352 28 l49 -59 l-46 -186 l-93 23 l31 122 l-602 -47 l32 -123 l-92 -24 l-46 179 ZM84 -16 l206 335 l80 -50 l-49 -79 l137 -158 l452 25 l5 -95 l-476 -26 l-37 16 l-133 153 l-104 -171 l-81 50 ZM262 460 l483 50 l10 -95 l-195 -20 l10 -87 l274 -9 l-4 -95 l-260 9 l12 -111 l-94 -10 l-31 294 l-197 -20 l-8 94 Z" /><glyph glyph-name="uni5BC6" unicode="&#x5bc6;" d="M105 316 l201 76 l0 160 l94 0 l0 -125 l151 57 l-60 79 l75 58 l77 -102 l60 23 l55 -17 l138 -199 l-78 -54 l-116 169 l-302 -115 l0 -14 l328 23 l7 -94 l-379 -25 l-50 46 l0 28 l-168 -63 l-33 89 ZM83 413 l80 105 l-91 0 l0 158 l48 47 l314 0 l-8 55 l94 15 l11 -70 l350 0 l46 -57 l-34 -161 l-92 18 l22 105 l-656 0 l0 -105 l40 53 l75 -58 l-124 -161 l-75 56 ZM195 -75 l-47 52 l19 198 l94 -9 l-14 -146 l200 0 l0 181 l95 0 l0 -181 l210 0 l-17 153 l93 12 l24 -208 l-47 -52 l-610 0 Z" /><glyph glyph-name="uni5C06" unicode="&#x5c06;" d="M327 -80 l-94 0 l0 258 l-101 -143 l-78 55 l179 253 l0 148 l-160 132 l60 73 l100 -83 l0 153 l94 0 l0 -846 ZM479 321 l-41 85 l155 75 l-89 55 l49 80 l141 -86 l68 33 l23 55 l-294 -1 l-52 -87 l-81 48 l132 220 l82 -48 l-23 -38 l310 0 l43 -66 l-62 -136 l-22 -24 l-339 -165 ZM829 225 l21 -180 l-26 -48 l-145 -71 l-41 84 l115 57 l-18 152 l-375 -23 l-5 94 l369 23 l-12 110 l93 12 l13 -116 l122 8 l7 -94 l-118 -8 ZM539 -33 l-80 165 l85 40 l80 -164 l-85 -41 Z" /><glyph glyph-name="uni5C3D" unicode="&#x5c3d;" d="M147 20 l-86 36 l105 258 l3 417 l45 48 l525 12 l48 -49 l-8 -270 l-40 -46 l-71 -10 l272 -287 l-69 -65 l-319 336 l-292 -41 l0 -55 l-4 -18 l-109 -266 ZM262 685 l-1 -231 l425 61 l5 180 l-429 -10 ZM614 -71 l-292 102 l32 89 l291 -104 l-31 -87 ZM582 151 l-210 86 l35 88 l212 -86 l-37 -88 Z" /><glyph glyph-name="uni5C55" unicode="&#x5c55;" d="M318 421 l79 4 l-4 53 l94 7 l4 -54 l180 10 l8 50 l94 -16 l-5 -29 l65 4 l5 -95 l-86 -5 l-9 -56 l139 14 l10 -94 l-148 -16 l38 -51 l75 47 l50 -80 l-68 -43 l53 -71 l-75 -55 l-182 242 l-207 -21 l0 -108 l124 56 l39 -85 l-190 -86 l-67 42 l0 172 l-78 -8 l-10 94 l88 9 l0 2 l19 0 l57 6 l-6 72 l-81 -4 l-5 93 ZM93 -34 l86 749 l45 43 l582 18 l48 -42 l17 -173 l-49 -52 l-531 20 l3 94 l478 -18 l-8 76 l-496 -17 l-81 -706 l-94 8 ZM503 269 l143 15 l10 61 l-158 -8 l5 -68 Z" /><glyph glyph-name="uni5C5E" unicode="&#x5c5e;" d="M894 -60 l-91 22 l31 124 l-86 -3 l40 -114 l-89 -30 l-11 30 l-153 -45 l-60 50 l13 100 l-112 -3 l20 -114 l-92 -16 l-30 166 l45 57 l181 5 l3 23 l-143 -8 l-50 51 l11 131 l45 44 l165 7 l3 21 l-200 -8 l-5 94 l517 22 l4 -95 l-220 -9 l-2 -20 l161 7 l49 -43 l12 -125 l-44 -52 l-208 -12 l-3 -25 l298 10 l47 -58 l-46 -184 ZM140 -48 l-80 48 l88 146 l15 558 l43 46 l658 46 l50 -49 l-3 -138 l-46 -47 l-612 -17 l-12 -414 l-6 -22 l-95 -157 ZM256 659 l-1 -20 l563 16 l1 44 l-563 -40 ZM615 326 l-4 -34 l140 8 l-2 32 l-134 -6 ZM409 281 l106 6 l4 35 l-106 -5 l-4 -36 ZM578 34 l79 23 l-7 20 l8 3 l-75 -3 l-5 -43 Z" /><glyph glyph-name="uni5E76" unicode="&#x5e76;" d="M707 211 l20 -254 l-94 -7 l-20 253 l-275 -24 l-71 -226 l-90 28 l59 189 l-145 -12 l-8 94 l184 16 l72 230 l90 -27 l-61 -195 l238 21 l-17 228 l-456 -10 l-2 93 l177 4 l-66 89 l75 57 l106 -143 l145 4 l105 149 l78 -53 l-65 -93 l161 4 l2 -95 l-166 -4 l17 -222 l208 18 l9 -93 l-210 -19 Z" /><glyph glyph-name="uni5E93" unicode="&#x5e93;" d="M486 408 l-60 -102 l157 -6 l9 95 l94 -9 l-9 -89 l242 -9 l-3 -93 l-247 8 l-9 -95 l254 5 l1 -93 l-264 -6 l-7 -84 l-94 8 l7 74 l-242 -5 l-1 95 l251 4 l9 101 l-230 8 l-39 70 l66 113 l-74 -6 l-7 95 l140 12 l45 76 l81 -48 l-11 -18 l284 24 l8 -95 l-351 -30 ZM155 -62 l-74 59 l104 128 l-9 511 l45 47 l295 10 l-27 52 l83 43 l48 -92 l296 10 l3 -94 l-648 -21 l8 -483 l-10 -30 l-114 -140 Z" /><glyph glyph-name="uni5E94" unicode="&#x5e94;" d="M155 -70 l-74 57 l79 98 l-25 527 l46 50 l278 6 l-38 80 l85 40 l56 -118 l347 8 l2 -95 l-680 -15 l24 -497 l-10 -31 l-90 -110 ZM776 29 l143 -4 l-3 -94 l-635 17 l3 94 l395 -11 l133 485 l90 -25 l-126 -462 ZM439 105 l-155 335 l85 40 l156 -335 l-86 -40 ZM585 191 l-115 275 l86 36 l116 -275 l-87 -36 Z" /><glyph glyph-name="uni5EFA" unicode="&#x5efa;" d="M353 569 l212 17 l-2 42 l-181 3 l3 95 l173 -4 l-2 38 l95 5 l2 -45 l169 -3 l44 -60 l-13 -47 l48 4 l7 -94 l-83 -7 l-25 -89 l-43 -35 l-86 -6 l1 -32 l123 8 l6 -95 l-124 -8 l2 -38 l207 16 l6 -94 l-208 -16 l3 -50 l189 18 l9 -93 l-482 -45 l-30 6 l-133 83 l-37 -78 l-86 40 l42 89 l-67 42 l50 80 l57 -36 l59 124 l-102 42 l-23 66 l97 172 l-80 10 l11 93 l150 -20 l35 -70 l-105 -185 l99 -41 l25 -64 l-84 -178 l129 -80 l182 17 l-2 51 l-209 -16 l-8 94 l211 16 l-2 39 l-152 -9 l-5 94 l152 10 l-1 32 l-160 -10 l-6 94 l161 10 l-1 21 l-208 -17 l-9 94 ZM658 626 l2 -32 l91 8 l7 23 l-100 1 ZM718 481 l6 24 l-59 -5 l1 -23 l52 4 Z" /><glyph glyph-name="uni5F0F" unicode="&#x5f0f;" d="M96 591 l464 23 l-20 132 l94 15 l22 -142 l114 6 l-35 101 l89 32 l56 -162 l-43 -62 l-167 -9 l47 -299 l188 -205 l-70 -63 l-196 215 l-13 25 l-51 323 l-474 -23 l-5 93 ZM120 419 l384 22 l5 -93 l-146 -9 l7 -205 l169 55 l28 -90 l-430 -140 l-28 90 l176 57 l-8 0 l-7 227 l-144 -8 l-6 94 Z" /><glyph glyph-name="uni5FC3" unicode="&#x5fc3;" d="M671 589 l84 43 l175 -345 l-84 -42 l-175 344 ZM385 671 l83 45 l153 -286 l-82 -45 l-154 286 ZM70 191 l123 329 l88 -33 l-122 -328 l-89 32 ZM330 22 l-45 53 l46 399 l94 -12 l-40 -348 l358 -17 l-5 -93 l-408 18 Z" /><glyph glyph-name="uni5FC5" unicode="&#x5fc5;" d="M57 81 l221 184 l-21 359 l95 5 l17 -289 l209 173 l-106 74 l54 78 l128 -89 l163 135 l60 -72 l-502 -416 l7 -109 l460 21 l4 -94 l-506 -24 l-49 44 l-6 88 l-168 -140 l-60 72 ZM726 430 l77 54 l154 -223 l-77 -54 l-154 223 ZM42 306 l90 244 l89 -34 l-90 -242 l-89 32 Z" /><glyph glyph-name="uni5FEB" unicode="&#x5feb;" d="M362 323 l196 15 l-7 244 l-133 8 l5 95 l125 -8 l-3 92 l95 2 l3 -99 l196 -12 l43 -61 l-74 -243 l111 9 l8 -94 l-308 -23 l-200 -297 l-77 53 l158 235 l-131 -10 l-7 94 ZM74 310 l93 194 l50 -24 l12 278 l94 -4 l-7 -159 l143 -101 l-54 -78 l-94 66 l-23 -526 l-94 4 l18 421 l-53 -111 l-85 40 ZM644 151 l68 65 l196 -203 l-68 -65 l-196 203 ZM645 576 l7 -231 l55 4 l67 220 l-129 7 Z" /><glyph glyph-name="uni606F" unicode="&#x606f;" d="M208 268 l0 223 l-71 3 l4 94 l67 -3 l0 79 l48 47 l147 -3 l82 88 l68 -65 l-23 -25 l241 -3 l47 -47 l0 -376 l-46 -46 l-515 -14 l-49 48 ZM347 -61 l-95 121 l-95 -106 l-70 62 l133 149 l72 -2 l109 -142 l83 27 l-73 106 l77 54 l91 -130 l118 38 l29 -90 l-328 -103 l-51 16 ZM302 582 l388 -14 l-4 -94 l-384 14 l0 -50 l421 13 l0 158 l-421 7 l0 -34 ZM732 126 l84 45 l97 -182 l-82 -44 l-99 181 ZM723 326 l0 30 l-421 -12 l0 -28 l421 10 Z" /><glyph glyph-name="uni60A8" unicode="&#x60a8;" d="M297 -37 l-54 124 l-100 -99 l-66 66 l149 148 l76 -14 l67 -155 l369 45 l11 -94 l-402 -48 l-50 27 ZM362 566 l104 218 l85 -40 l-19 -40 l329 3 l45 -61 l-55 -164 l-89 30 l34 100 l-309 -3 l-40 -85 l-85 42 ZM73 598 l278 150 l45 -82 l-113 -61 l33 -351 l-94 -7 l-29 309 l-75 -40 l-45 82 ZM551 309 l63 40 l-13 224 l93 5 l15 -251 l-21 -43 l-87 -55 l-50 80 ZM343 391 l174 142 l60 -72 l-174 -144 l-60 74 ZM721 171 l71 61 l135 -154 l-71 -61 l-135 154 ZM427 202 l69 64 l110 -119 l-69 -64 l-110 119 ZM721 393 l46 81 l140 -78 l-46 -83 l-140 80 Z" /><glyph glyph-name="uni6210" unicode="&#x6210;" d="M96 -32 l49 636 l46 44 l346 0 l-41 105 l88 33 l54 -138 l146 0 l-29 65 l86 37 l59 -130 l-44 -66 l-181 0 l73 -187 l73 96 l75 -57 l-108 -141 l116 -297 l-88 -35 l-96 244 l-151 -198 l-75 57 l186 243 l-107 275 l-338 0 l-10 -123 l231 -33 l40 -58 l-74 -332 l-92 20 l62 283 l-174 26 l-28 -377 l-94 8 Z" /><glyph glyph-name="uni6237" unicode="&#x6237;" d="M841 234 l-526 2 l6 -65 l-8 -30 l-142 -212 l-79 51 l134 200 l-39 470 l94 7 l4 -55 l177 9 l-70 135 l84 44 l90 -174 l292 15 l49 -50 l-20 -302 l-46 -45 ZM293 508 l15 -178 l489 -1 l13 206 l-517 -27 Z" /><glyph glyph-name="uni6240" unicode="&#x6240;" d="M116 -29 l20 643 l31 44 l262 90 l30 -90 l-230 -79 l-2 -60 l213 19 l50 -50 l-14 -279 l-47 -45 l-213 5 l-6 -201 l-94 3 ZM517 4 l5 611 l33 45 l277 93 l30 -89 l-245 -83 l-1 -77 l260 25 l9 -94 l-80 -8 l41 -417 l-94 -10 l-41 418 l-96 -9 l-4 -406 l-94 1 ZM224 424 l-5 -161 l166 -4 l9 180 l-170 -15 Z" /><glyph glyph-name="uni6269" unicode="&#x6269;" d="M382 -40 l-61 71 l114 99 l-4 487 l44 48 l156 11 l-21 71 l90 28 l27 -92 l189 14 l6 -94 l-396 -30 l2 -465 l-16 -35 l-130 -113 ZM272 566 l8 -145 l55 35 l50 -79 l-100 -63 l11 -198 l-11 -33 l-112 -138 l-73 58 l101 125 l-7 128 l-66 -41 l-51 80 l111 69 l-10 195 l-67 -4 l-6 93 l68 5 l-6 110 l95 5 l5 -108 l86 6 l8 -94 l-89 -6 Z" /><glyph glyph-name="uni62DF" unicode="&#x62df;" d="M287 498 l10 -136 l66 24 l33 -89 l-91 -33 l13 -169 l-20 -43 l-147 -98 l-53 77 l124 84 l-9 116 l-114 -40 l-31 89 l137 49 l-12 160 l-105 -10 l-9 93 l107 10 l-14 180 l94 8 l13 -178 l82 8 l8 -94 l-82 -8 ZM785 200 l147 -163 l-70 -63 l-138 151 l-142 -176 l-73 58 l247 307 l0 427 l93 0 l0 -445 l-10 -29 l-54 -67 ZM469 100 l-66 44 l3 505 l95 0 l-3 -434 l91 39 l38 -87 l-158 -67 ZM603 574 l-74 148 l84 43 l74 -150 l-84 -41 Z" /><glyph glyph-name="uni6302" unicode="&#x6302;" d="M309 529 l5 -152 l81 37 l40 -86 l-118 -55 l8 -258 l-52 -48 l-162 16 l10 94 l107 -10 l-5 163 l-87 -40 l-40 87 l124 57 l-6 209 l-127 20 l14 94 l110 -17 l-3 108 l95 2 l3 -125 l96 -15 l-14 -93 l-79 12 ZM425 269 l201 9 l14 126 l95 -10 l-12 -111 l138 6 l4 -95 l-153 -7 l-12 -110 l210 5 l2 -95 l-529 -13 l-2 95 l224 5 l11 108 l-188 -8 l-3 95 ZM450 683 l174 5 l6 65 l95 -8 l-5 -55 l132 4 l3 -95 l-143 -4 l-6 -68 l194 8 l3 -95 l-482 -18 l-4 95 l193 7 l6 68 l-164 -4 l-2 95 Z" /><glyph glyph-name="uni636E" unicode="&#x636e;" d="M470 -51 l-94 6 l56 770 l48 44 l369 -4 l46 -41 l20 -154 l-40 -53 l-368 -48 l-37 -520 ZM865 325 l-120 1 l-6 -73 l113 3 l48 -46 l5 -191 l-45 -49 l-299 -16 l-50 46 l0 201 l46 48 l87 2 l6 75 l-126 1 l1 94 l131 -1 l4 51 l95 -7 l-3 -45 l113 0 l0 -94 ZM283 548 l6 -190 l65 33 l43 -84 l-105 -54 l7 -196 l-24 -42 l-105 -59 l-46 83 l80 45 l-4 122 l-71 -36 l-43 84 l110 56 l-8 229 l-89 -9 l-10 94 l96 10 l-4 135 l95 2 l4 -128 l66 7 l9 -94 l-72 -8 ZM522 674 l-7 -109 l301 39 l-9 67 l-285 3 ZM606 155 l0 -105 l203 11 l-2 99 l-201 -5 Z" /><glyph glyph-name="uni63A5" unicode="&#x63a5;" d="M369 296 l118 8 l37 82 l86 -39 l-16 -35 l290 22 l6 -94 l-341 -25 l-18 -41 l99 -36 l136 81 l49 -82 l-69 -41 l153 -54 l-33 -88 l-225 80 l-170 -100 l-49 81 l102 61 l-73 26 l-27 64 l18 41 l-67 -5 l-6 94 ZM109 579 l96 23 l-5 129 l94 4 l4 -111 l72 17 l21 -91 l-89 -22 l5 -125 l28 17 l50 -81 l-73 -46 l8 -202 l-21 -41 l-130 -88 l-53 78 l109 74 l-5 122 l-69 -42 l-50 80 l114 71 l-6 161 l-78 -19 l-22 92 ZM675 541 l51 78 l-295 2 l1 94 l153 -1 l-11 48 l91 23 l17 -72 l198 -1 l0 -93 l-43 0 l-83 -129 l-79 51 ZM419 406 l3 95 l93 -4 l-39 73 l84 44 l64 -120 l-3 -2 l238 -10 l-4 -93 l-436 17 Z" /><glyph glyph-name="uni63D0" unicode="&#x63d0;" d="M390 598 l47 6 l-16 104 l45 53 l355 15 l49 -51 l-20 -275 l-44 -44 l-291 -20 l-49 40 l-14 84 l-51 -6 l-11 94 ZM433 356 l464 25 l5 -93 l-173 -10 l4 -58 l157 5 l2 -94 l-153 -5 l3 -48 l166 -32 l-17 -92 l-420 80 l-33 -78 l-86 37 l96 230 l88 -37 l-27 -63 l138 -27 l-13 177 l-196 -10 l-5 93 ZM92 628 l104 15 l-4 83 l94 5 l4 -74 l61 9 l14 -92 l-70 -11 l8 -167 l53 28 l44 -84 l-91 -48 l11 -207 l-20 -41 l-149 -101 l-53 77 l127 86 l-8 139 l-74 -39 l-43 84 l112 58 l-11 200 l-94 -14 l-15 94 ZM530 615 l198 25 l12 -94 l-195 -24 l7 -39 l206 15 l14 181 l-250 -10 l8 -54 Z" /><glyph glyph-name="uni6536" unicode="&#x6536;" d="M424 560 l66 208 l90 -29 l-45 -140 l367 29 l8 -94 l-43 -4 l-183 -280 l203 -221 l-70 -64 l-186 204 l-110 -168 l-79 52 l123 188 l-128 140 l70 64 l111 -123 l131 199 l-277 -22 l-48 61 ZM126 220 l-35 428 l94 8 l30 -357 l61 32 l-5 434 l94 1 l10 -812 l-94 -1 l-3 273 l-83 -43 l-69 37 Z" /><glyph glyph-name="uni6539" unicode="&#x6539;" d="M391 -17 l156 261 l-95 72 l58 76 l87 -66 l159 266 l-182 -5 l-63 -164 l-89 35 l125 325 l89 -35 l-25 -65 l285 8 l4 -95 l-31 -1 l-196 -327 l231 -173 l-58 -75 l-222 166 l-150 -251 l-83 48 ZM121 -8 l-25 436 l44 50 l166 13 l6 129 l-197 25 l11 93 l241 -30 l42 -48 l-10 -217 l-44 -45 l-161 -11 l18 -316 l128 67 l44 -83 l-193 -103 l-70 40 Z" /><glyph glyph-name="uni6570" unicode="&#x6570;" d="M901 570 l-135 -312 l164 -234 l-77 -54 l-131 186 l-87 -203 l-86 36 l110 257 l-129 185 l78 54 l95 -137 l90 209 l-219 -27 l-48 69 l100 191 l84 -44 l-59 -111 l263 31 l11 -93 l-24 -3 ZM154 619 l90 6 l-4 175 l94 3 l4 -172 l11 0 l3 2 l42 153 l91 -25 l-34 -123 l44 3 l6 -93 l-84 -6 l98 -139 l-76 -54 l-98 138 l3 -133 l-94 -3 l-3 124 l-99 -142 l-78 53 l98 140 l-72 -5 l-6 94 l55 3 l-67 98 l78 53 l69 -101 l-71 -49 ZM427 116 l92 -12 l-13 -93 l-166 21 l-120 -114 l-65 67 l65 63 l-87 11 l-38 62 l30 82 l-54 3 l4 94 l84 -4 l21 57 l89 -33 l-11 -29 l228 -10 l30 -81 l-89 -84 ZM224 199 l-20 -54 l103 -14 l64 62 l-147 6 Z" /><glyph glyph-name="uni6574" unicode="&#x6574;" d="M111 729 l145 2 l0 32 l94 1 l0 -32 l154 2 l1 -94 l-153 -3 l0 -9 l82 3 l48 -46 l3 -112 l-44 -48 l-8 -1 l78 -55 l-56 -76 l-85 61 l51 69 l-66 -4 l2 -114 l-95 -2 l-1 73 l-91 -98 l-69 65 l61 66 l-45 39 l-13 120 l45 52 l108 4 l0 12 l-145 -2 l-1 95 ZM539 379 l65 68 l-55 26 l40 85 l84 -39 l67 70 l-179 31 l-35 68 l48 93 l83 -42 l-18 -36 l205 -35 l25 -79 l-107 -112 l137 -63 l-39 -85 l-166 77 l-88 -92 l-67 65 ZM141 271 l701 15 l3 -93 l-268 -6 l-6 -21 l126 8 l5 -95 l-191 -10 l-49 60 l16 56 l-334 -7 l-3 93 ZM101 30 l168 7 l0 114 l93 0 l0 -109 l504 23 l4 -94 l-765 -33 l-4 92 ZM206 503 l53 3 l0 24 l-55 -2 l2 -25 ZM353 533 l1 -21 l36 3 l0 20 l-37 -2 Z" /><glyph glyph-name="uni6709" unicode="&#x6709;" d="M657 17 l114 33 l-15 354 l-384 -30 l-4 -50 l346 11 l2 -95 l-355 -11 l-3 -53 l314 -6 l-1 -95 l-320 7 l-9 -137 l-95 7 l9 132 l-75 2 l3 94 l79 -2 l18 243 l44 44 l472 37 l52 -45 l17 -441 l-34 -47 l-150 -40 l-25 88 ZM116 667 l207 10 l91 113 l73 -59 l-39 -48 l432 21 l5 -95 l-516 -24 l-179 -223 l-73 60 l127 157 l-124 -5 l-4 93 Z" /><glyph glyph-name="uni670D" unicode="&#x670d;" d="M124 -21 l-68 67 l80 78 l17 328 l-41 3 l7 94 l39 -3 l7 143 l47 45 l195 3 l49 -46 l24 -644 l-45 -48 l-154 -10 l-6 95 l107 6 l-5 136 l-140 24 l-7 -149 l-14 -32 l-92 -90 ZM592 -56 l-95 2 l15 741 l42 47 l276 41 l54 -54 l-34 -227 l-94 13 l24 164 l-173 -25 l-15 -702 ZM771 148 l173 -106 l-49 -81 l-163 99 l-37 -84 l-86 39 l41 94 l-53 33 l50 82 l42 -26 l83 187 q-25 -1 -48 -2.5 q-23 -1.5 -41.5 -2.5 q-18.5 -1 -31 -2.5 q-12.5 -1.5 -15.5 -1.5 l-9 95 q4 0 33.5 2 q29.5 2 66.5 4.5 q37 2.5 70.5 4.5 q33.5 2 47.5 3 l46 -66 l-120 -271 ZM336 440 l-89 6 l-5 -100 l131 -23 l-11 318 l-105 -1 l-5 -100 l90 -5 l-6 -95 Z" /><glyph glyph-name="uni673A" unicode="&#x673a;" d="M400 -34 l-65 66 l116 112 l34 543 l50 44 l272 -16 l45 -49 l-17 -577 l74 37 l41 -85 l-144 -71 l-67 44 l17 610 l-180 11 l-32 -516 l-14 -32 l-130 -121 ZM298 557 l-2 -107 l111 -129 l-71 -61 l-42 48 l-5 -359 l-95 2 l5 361 l-62 -140 l-86 39 l146 328 l-118 -20 l-17 92 l142 25 l2 134 l95 -1 l-2 -116 l96 17 l16 -93 l-113 -20 Z" /><glyph glyph-name="uni6784" unicode="&#x6784;" d="M345 517 l-2 -26 l133 -132 l-66 -67 l-76 74 l-27 -403 l-94 6 l26 381 l-98 -182 l-84 44 l155 289 l-82 -10 l-12 93 l138 17 l12 168 l94 -6 l-11 -150 l72 9 l12 -94 l-90 -11 ZM662 -54 l-29 88 l215 73 l-5 442 l-340 -13 l-42 71 l101 166 l81 -49 l-56 -91 l301 13 l49 -47 l6 -526 l-32 -45 l-249 -82 ZM503 132 l-46 65 l124 302 l87 -35 l-96 -235 l121 5 l-21 119 l93 16 l31 -171 l-45 -55 l-248 -11 Z" /><glyph glyph-name="uni6838" unicode="&#x6838;" d="M432 631 l176 10 l-39 68 l83 47 l62 -109 l216 12 l7 -95 l-262 -15 l-96 -123 l91 -37 l154 121 l59 -74 l-415 -327 l-59 75 l175 137 l-99 40 l-20 74 l83 107 l-111 -6 l-5 95 ZM130 520 l87 8 l-5 203 l95 3 l5 -197 l93 9 l9 -95 l-100 -9 l2 -52 l136 -60 l-39 -86 l-95 42 l9 -318 l-95 -3 l-6 218 l-92 -100 l-70 65 l159 170 l-3 115 l-81 -7 l-9 94 ZM427 40 l357 245 l54 -79 l-76 -52 l135 -118 l-63 -70 l-154 133 l-200 -136 l-53 77 Z" /><glyph glyph-name="uni683C" unicode="&#x683c;" d="M416 551 l168 239 l77 -55 l-24 -35 l239 -64 l20 -81 l-135 -125 l179 -81 l-40 -87 l-215 97 l-279 -259 l-65 69 l250 232 l-90 41 l39 88 l128 -58 l101 94 l-190 52 l-85 -121 l-78 54 ZM313 548 l-5 -131 l113 -52 l-40 -86 l-78 35 l-15 -372 l-95 4 l12 290 l-74 -81 l-71 64 l151 166 l7 176 l-105 16 l13 94 l96 -15 l4 89 l95 -4 l-4 -99 l106 -15 l-14 -93 l-96 14 ZM533 -24 l6 211 l46 47 l248 6 l48 -48 l0 -156 l-36 -46 l-254 -61 l-58 47 ZM629 36 l157 38 l0 70 l-153 -4 l-4 -104 Z" /><glyph glyph-name="uni6B22" unicode="&#x6b22;" d="M290 289 l121 -181 l-78 -53 l-87 128 l-93 -227 l-86 37 l116 284 l-112 168 l79 53 l77 -115 l73 178 l-187 82 l39 86 l228 -100 l25 -61 l-115 -279 ZM597 685 l289 0 l46 -56 l-66 -334 l-93 19 l55 277 l-263 0 l-67 -198 l-88 30 l121 360 l89 -32 l-23 -66 ZM634 247 l13 14 l280 -253 l-64 -70 l-265 239 l-121 -231 l-84 43 l279 535 l84 -44 l-122 -233 Z" /><glyph glyph-name="uni6B63" unicode="&#x6b63;" d="M604 353 l-5 -275 l307 12 l4 -94 l-816 -31 l-4 93 l175 7 l-60 407 l94 14 l61 -418 l144 6 l9 576 l-367 10 l3 95 l727 -22 l-2 -93 l-266 7 l-3 -200 l246 0 l0 -94 l-247 0 Z" /><glyph glyph-name="uni6B65" unicode="&#x6b65;" d="M115 501 l109 5 l0 220 l95 0 l0 -215 l141 8 l0 246 l94 0 l0 -71 l289 19 l6 -95 l-295 -18 l0 -76 l346 18 l5 -95 l-785 -40 l-5 94 ZM95 42 l376 153 l0 218 l95 0 l0 -179 l279 114 l35 -87 l-750 -306 l-35 87 ZM184 180 l156 201 l74 -58 l-155 -201 l-75 58 Z" /><glyph glyph-name="uni6BD4" unicode="&#x6bd4;" d="M515 16 l-8 732 l95 2 l2 -210 l241 125 l44 -84 l-284 -146 l4 -359 l263 64 l23 -92 l-323 -78 l-57 46 ZM106 17 l48 706 l93 -6 l-12 -174 l242 23 l10 -94 l-258 -25 l-23 -356 l216 104 l40 -85 l-288 -139 l-68 46 Z" /><glyph glyph-name="uni6E90" unicode="&#x6e90;" d="M281 -28 l56 733 l43 44 l517 41 l8 -94 l-233 -18 l40 -22 l-27 -50 l195 13 l50 -53 l-30 -275 l-46 -41 l-141 -4 l9 -195 l-16 -39 l-104 -83 l-60 72 l85 69 l-8 174 l-98 -2 l-49 48 l0 69 l-40 -3 l-7 94 l47 4 l0 93 l44 48 l59 4 l40 74 l-188 -14 l-52 -692 l-94 5 ZM92 20 l105 355 l-136 86 l50 80 l166 -106 l20 -53 l-113 -390 l-92 28 ZM567 462 l218 18 l7 -94 l-225 -19 l0 -30 l244 7 l19 177 l-263 -17 l0 -42 ZM402 -4 l97 211 l86 -40 l-98 -210 l-85 39 ZM95 672 l56 77 l155 -114 l-56 -76 l-155 113 ZM749 109 l73 58 l117 -146 l-75 -57 l-115 145 Z" /><glyph glyph-name="uni70B9" unicode="&#x70b9;" d="M757 191 l-525 21 l-44 37 l-53 228 l45 58 l182 3 l-32 234 l93 13 l12 -86 l282 35 l12 -94 l-281 -35 l9 -65 l357 7 l46 -57 l-56 -261 l-47 -38 ZM272 305 l448 -19 l37 165 l-517 -9 l32 -137 ZM843 -61 l-88 126 l-451 -120 l-24 90 l483 129 l51 -19 l106 -153 l-77 -53 ZM167 -66 l-88 35 l88 220 l87 -35 l-87 -220 Z" /><glyph glyph-name="uni7269" unicode="&#x7269;" d="M67 363 l88 335 l91 -24 l-34 -131 l65 -6 l9 212 l95 -4 l-10 -216 l61 -5 l-7 -94 l-58 5 l-5 -128 l56 13 l22 -91 l-83 -20 l-9 -218 l-93 4 l8 192 l-143 -33 l-22 91 l169 39 l6 159 l-86 8 l-29 -112 l-91 24 ZM451 535 l94 238 l87 -35 l-23 -59 l281 -31 l42 -50 l-35 -545 l-24 -38 l-118 -67 l-48 81 l98 55 l30 475 l-263 29 l-34 -87 l-87 34 ZM442 45 l114 436 l91 -23 l-114 -437 l-91 24 ZM611 120 l96 369 l91 -24 l-96 -369 l-91 24 Z" /><glyph glyph-name="uni73AF" unicode="&#x73af;" d="M591 455 l86 -4 l-26 -483 l-94 5 l25 471 l-174 -231 l-76 56 l293 387 l-200 0 l0 95 l468 0 l0 -95 l-197 0 l30 -22 l-135 -179 ZM280 341 l1 -180 l82 27 l29 -90 l-286 -92 l-29 89 l110 36 l-1 202 l-88 -8 l-8 94 l95 8 l-2 155 l-98 -18 l-18 92 l304 57 l17 -93 l-110 -21 l1 -163 l78 7 l8 -94 l-85 -8 ZM858 163 l-170 217 l75 59 l170 -219 l-75 -57 Z" /><glyph glyph-name="uni7406" unicode="&#x7406;" d="M368 564 l49 5 l-15 130 l45 53 l423 21 l50 -51 l-33 -354 l-46 -42 l-134 -3 l0 -77 l176 12 l7 -94 l-183 -13 l1 -97 l222 10 l3 -93 l-562 -25 l-5 93 l247 11 l-1 95 l-165 -11 l-6 94 l171 11 l0 82 l-124 -2 l-47 43 l-13 113 l-50 -4 l-10 93 ZM81 699 l282 30 l10 -93 l-105 -12 l5 -189 l80 -7 l-8 -94 l-69 6 l6 -206 l63 27 l37 -87 l-277 -120 l-38 88 l122 52 l-8 255 l-86 9 l8 94 l75 -7 l-5 169 l-82 -8 l-10 93 ZM707 501 l0 -84 l90 2 l24 257 l-114 -6 l0 -73 l43 4 l10 -95 l-53 -5 ZM511 578 l101 9 l0 78 l-110 -6 l9 -81 ZM530 414 l82 1 l0 77 l-90 -8 l8 -70 Z" /><glyph glyph-name="uni7528" unicode="&#x7528;" d="M475 -19 l4 213 l-208 -22 l1 -73 l-7 -28 l-89 -127 l-79 51 l81 117 l-8 584 l45 49 l620 30 l48 -45 l20 -681 l-26 -44 l-117 -56 l-42 83 l90 44 l-17 603 l-210 -11 l-2 -149 l176 -4 l-3 -95 l-175 4 l-2 -125 l185 20 l10 -94 l-196 -21 l-4 -225 l-95 2 ZM313 525 l172 -4 l2 142 l-222 -11 l5 -385 l211 22 l2 137 l-171 5 l1 94 Z" /><glyph glyph-name="uni7531" unicode="&#x7531;" d="M101 338 l64 6 l-16 227 l47 52 l285 -7 l-2 140 l95 2 l2 -144 l278 -6 l46 -50 l-38 -547 l-47 -43 l-579 -5 l-47 43 l-18 244 l-60 -6 l-10 94 ZM581 292 l3 -232 l187 1 l31 453 l-225 5 l2 -133 l145 15 l10 -93 l-153 -16 ZM280 58 l210 1 l-4 223 l-221 -23 l15 -201 ZM258 354 l227 23 l-3 144 l-236 5 l12 -172 Z" /><glyph glyph-name="uni7684" unicode="&#x7684;" d="M68 356 l54 17 l-4 201 l44 49 l59 5 l98 135 l77 -55 l-50 -68 l117 11 l51 -46 l14 -529 l-39 -47 l-302 -53 l-56 47 l-6 251 l-29 -9 l-28 91 ZM532 524 l119 239 l85 -43 l-40 -79 l188 0 l48 -47 l-14 -590 l-54 -46 l-271 32 l11 95 l220 -27 l12 488 l-187 0 l-32 -65 l-85 43 ZM217 402 l159 49 l27 -91 l-184 -57 l5 -224 l209 36 l-12 436 l-207 -18 l3 -131 ZM568 363 l69 65 l149 -155 l-69 -67 l-149 157 Z" /><glyph glyph-name="uni76D8" unicode="&#x76d8;" d="M764 415 l-5 -100 l-27 -41 l-125 -59 l-40 85 l100 47 l3 61 l-217 -16 l92 -90 l-66 -67 l-100 99 l56 57 l-122 -9 l5 -58 l-13 -37 l-85 -91 l-70 64 l72 76 l-3 39 l-134 -10 l-6 94 l132 10 l-14 188 l47 50 l84 1 l94 107 l71 -63 l-38 -43 l274 3 l48 -50 l-8 -152 l144 11 l7 -94 l-156 -12 ZM796 22 l39 2 l4 -94 l-755 -26 l-4 93 l92 3 l-22 120 l44 56 l576 30 l49 -55 l-23 -129 ZM491 489 l183 14 l6 114 l-247 -2 l96 -84 l-38 -42 ZM306 476 l131 9 l-74 67 l56 63 l-124 -1 l11 -138 ZM421 9 l106 4 l5 86 l-126 -6 l15 -84 ZM627 104 l-5 -88 l79 3 l16 90 l-90 -5 ZM269 4 l56 2 l-13 82 l-59 -3 l16 -81 Z" /><glyph glyph-name="uni76F4" unicode="&#x76f4;" d="M161 710 l322 7 l23 69 l89 -30 l-12 -37 l258 6 l3 -95 l-292 -6 l-20 -62 l237 -2 l47 -51 l-45 -451 l114 5 l4 -94 l-773 -36 l-5 95 l131 6 l-4 29 l-49 -4 l-8 94 l45 3 l-47 357 l47 53 l207 -3 l19 59 l-290 -6 l-1 94 ZM331 70 l4 -32 l341 15 l40 413 l-436 5 l5 -42 l362 10 l2 -94 l-352 -9 l3 -27 l330 11 l4 -95 l-322 -10 l7 -51 l320 25 l7 -94 l-315 -25 Z" /><glyph glyph-name="uni76F8" unicode="&#x76f8;" d="M427 264 l49 6 l-21 419 l50 50 l375 -20 l44 -48 l-19 -621 l-40 -45 l-320 -47 l-55 42 l-9 175 l-41 -5 l-13 94 ZM91 609 l158 17 l2 135 l95 -1 l-2 -123 l71 8 l10 -94 l-82 -9 l-2 -136 l101 -58 l-46 -82 l-57 32 l-4 -318 l-95 0 l5 396 l-79 -255 l-90 28 l117 377 l-91 -10 l-11 93 ZM575 187 l7 -129 l229 35 l12 360 l-260 -22 l7 -149 l211 27 l13 -93 l-219 -29 ZM558 525 l268 23 l3 80 l-277 13 l6 -116 Z" /><glyph glyph-name="uni7801" unicode="&#x7801;" d="M459 595 l-134 13 l-81 -187 l175 20 l52 -50 l-25 -379 l-44 -45 l-157 -9 l-50 44 l-15 271 l-41 -95 l-88 38 l175 402 l-96 10 l10 94 l329 -34 l-10 -93 ZM750 -55 l-34 87 l138 53 l-14 232 l-286 -22 l-50 57 l55 251 l92 -20 l-41 -190 l271 22 l50 -45 l19 -314 l-30 -48 l-170 -63 ZM861 431 l-92 21 l43 194 l-310 35 l10 94 l363 -42 l41 -57 l-55 -245 ZM506 -48 l-57 73 l320 246 l57 -74 l-320 -245 ZM271 330 l15 -275 l69 5 l19 281 l-103 -11 Z" /><glyph glyph-name="uni786E" unicode="&#x786e;" d="M849 518 l64 2 l49 -47 l0 -448 l-31 -45 l-128 -46 l-32 89 l97 35 l0 38 l-117 -5 l-8 -161 l-94 5 l7 151 l-96 -4 l-7 -154 l-94 5 l24 532 l46 45 l216 5 l38 86 l-178 -2 l-33 -61 l-83 45 l114 210 l83 -45 l-29 -54 l197 4 l45 -67 l-50 -113 ZM325 563 l-97 -160 l169 13 l50 -52 l-40 -366 l-48 -43 l-163 6 l-47 45 l-6 258 l-24 -39 l-81 49 l169 275 l-90 -10 l-10 94 l340 38 l11 -93 l-133 -15 ZM243 54 l75 -3 l29 267 l-110 -8 l6 -256 ZM767 422 l-3 -75 l104 2 l0 76 l-101 -3 ZM755 185 l113 5 l0 64 l-109 -2 l-4 -67 ZM572 344 l97 1 l3 75 l-96 -2 l-4 -74 ZM564 176 l97 5 l3 70 l-96 -1 l-4 -74 Z" /><glyph glyph-name="uni78C1" unicode="&#x78c1;" d="M679 331 l95 219 l86 -39 l-61 -139 l50 8 l23 56 l88 -35 l-111 -269 l87 22 l48 -193 l-93 -22 l-11 46 l-125 -41 l-57 59 l1 -6 l-93 -15 l-5 26 l-116 -47 l-61 61 l122 282 l-90 10 l-34 72 l116 178 l-86 -4 l-3 95 l88 4 l-17 71 l91 22 l22 -89 l117 6 l44 112 l87 -34 l-28 -73 l102 5 l5 -94 l-421 -21 l78 -50 l-75 -114 l43 -5 l20 45 l86 -38 l-105 -241 l84 14 l27 -167 l110 270 l-78 -12 l-50 65 ZM16 216 l271 381 l-163 -15 l-9 94 l266 24 l43 -74 l-162 -226 l103 21 l56 -46 l3 -341 l-43 -48 l-182 -12 l-52 46 l7 229 l-62 -87 l-76 54 ZM244 70 l86 6 l-3 241 l-77 -16 l-6 -231 ZM822 65 l36 11 l-12 48 l-24 -59 ZM556 91 l30 12 l-7 42 l-23 -54 Z" /><glyph glyph-name="uni793A" unicode="&#x793a;" d="M96 468 l804 38 l5 -93 l-332 -17 l16 -317 l-28 -45 l-162 -76 l-40 85 l133 62 l-13 287 l-379 -19 l-4 95 ZM209 705 l553 58 l10 -94 l-553 -58 l-10 94 ZM137 66 l153 265 l81 -47 l-152 -264 l-82 46 ZM649 243 l72 60 l174 -214 l-73 -60 l-173 214 Z" /><glyph glyph-name="uni79C1" unicode="&#x79c1;" d="M113 667 l364 83 l20 -93 l-138 -31 l-2 -130 l148 13 l8 -94 l-154 -14 l147 -119 l-60 -72 l-93 75 l-5 -316 l-93 1 l5 316 l-105 -184 l-83 48 l137 238 l-97 -8 l-7 94 l158 14 l2 116 l-130 -29 l-22 92 ZM457 59 l219 677 l90 -29 l-195 -603 l213 37 l-87 250 l89 31 l142 -410 l-88 -31 l-24 69 l-306 -53 l-53 62 Z" /><glyph glyph-name="uni79DF" unicode="&#x79df;" d="M382 42 l105 8 l-19 594 l48 49 l327 -9 l45 -50 l-9 -113 l34 4 l10 -93 l-51 -6 l-26 -347 l80 6 l7 -93 l-543 -44 l-8 94 ZM331 373 l0 -43 l1 2 l115 -80 l-55 -78 l-63 44 l-3 -271 l-94 1 l4 357 l-79 -238 l-90 28 l94 282 l-50 2 l2 94 l125 -4 l2 150 l-93 -31 l-30 90 l288 95 l30 -90 l-100 -33 l-3 -183 l110 -3 l-2 -94 l-109 3 ZM595 489 l190 21 l6 82 l-228 5 l9 -296 l195 -21 l10 135 l-172 -20 l-10 94 ZM580 58 l171 13 l9 115 l-185 21 l5 -149 Z" /><glyph glyph-name="uni7A7A" unicode="&#x7a7a;" d="M207 240 l608 87 l14 -93 l-275 -39 l6 -159 l309 -4 l-1 -93 l-724 8 l1 94 l320 -4 l-6 144 l-240 -34 l-12 93 ZM804 499 l13 111 l-632 -30 l12 -75 l-93 -14 l-20 126 l45 54 l300 14 l-26 52 l85 43 l45 -90 l335 16 l49 -52 l-19 -165 l-94 10 ZM520 467 l33 89 l249 -95 l-34 -89 l-248 95 ZM195 394 l125 148 l73 -61 l-125 -149 l-73 62 Z" /><glyph glyph-name="uni7ACB" unicode="&#x7acb;" d="M89 -10 l4 95 l453 -22 l172 442 l87 -34 l-159 -413 l266 -12 l-4 -93 l-819 37 ZM148 633 l302 28 l-22 82 l91 25 l26 -98 l317 30 l8 -94 l-713 -67 l-9 94 ZM230 431 l89 34 l110 -294 l-89 -33 l-110 293 Z" /><glyph glyph-name="uni7AEF" unicode="&#x7aef;" d="M840 -41 l0 271 l-51 -10 l30 -214 l-94 -14 l-29 211 l-31 -5 l34 -252 l-95 -12 l-33 247 l-42 -8 l-4 -236 l-95 2 l5 331 l16 36 l74 62 l-106 -7 l-6 95 l490 33 l6 -95 l-223 -15 l-121 -103 l314 58 l56 -48 l0 -327 l-95 0 ZM434 536 l-31 206 l95 14 l23 -161 l114 11 l-9 175 l95 5 l8 -171 l100 10 l2 125 l95 -3 l-3 -167 l-44 -46 l-394 -38 l-51 40 ZM65 89 l130 41 l-82 259 l91 28 l45 -142 l49 171 l91 -26 l-71 -251 l51 17 l29 -90 l-303 -99 l-30 92 ZM71 564 l122 11 l-60 111 l83 45 l63 -115 l-72 -40 l174 16 l8 -95 l-310 -27 l-8 94 Z" /><glyph glyph-name="uni7BA1" unicode="&#x7ba1;" d="M238 -20 l-17 353 l45 50 l466 15 l46 -64 l-41 -116 l-44 -31 l-314 -13 l-3 95 l282 11 l6 20 l-346 -11 l6 -132 l445 11 l49 -49 l-2 -129 l-47 -45 l-482 -8 l-49 43 ZM91 304 l40 169 l46 36 l246 0 l-15 20 l75 58 l58 -78 l345 1 l46 -56 l-29 -149 l-94 19 l19 91 l-614 -1 l-31 -132 l-92 22 ZM68 598 l156 184 l73 -62 l-16 -18 l200 15 l6 -95 l-124 -9 l34 -34 l-69 -67 l-90 91 l-44 -3 l-55 -63 l-71 61 ZM497 612 l91 97 l0 4 l3 0 l66 70 l70 -65 l-3 -4 l174 3 l1 -95 l-105 -2 l38 -30 l-60 -73 l-126 101 l-12 0 l-67 -71 l-70 65 ZM331 30 l391 8 l0 34 l-393 -10 l2 -32 Z" /><glyph glyph-name="uni7BB1" unicode="&#x7bb1;" d="M522 -20 l-5 264 l-43 1 l2 93 l39 -1 l-1 96 l50 48 l308 -14 l45 -49 l-14 -417 l-42 -44 l-289 -22 l-50 45 ZM103 411 l128 0 l-2 46 l95 4 l2 -50 l113 1 l2 -94 l-112 -1 l1 -14 l147 -88 l-50 -82 l-93 57 l9 -229 l-94 -4 l-8 207 l-89 -168 l-84 44 l147 276 l-112 0 l0 95 ZM479 570 l122 215 l82 -47 l-30 -53 l274 16 l5 -94 l-128 -8 l39 -56 l-79 -53 l-70 103 l-96 -6 l-36 -64 l-83 47 ZM374 589 l28 -58 l-85 -40 l-48 100 l-46 1 l-55 -90 l-80 50 l133 218 l81 -49 l-22 -36 l187 -4 l-3 -94 l-90 2 ZM610 335 l172 -3 l-3 -95 l-167 4 l1 -55 l203 26 l6 164 l-213 9 l1 -50 ZM811 47 l2 70 l-198 -26 l1 -59 l195 15 Z" /><glyph glyph-name="uni7CFB" unicode="&#x7cfb;" d="M727 317 l-170 -35 l36 -218 l-23 -48 l-142 -80 l-46 81 l113 65 l-30 181 l-274 -57 l-36 85 l229 152 l-139 41 l-22 78 l78 84 l-165 -14 l-9 94 l654 57 l7 -94 l-350 -31 l2 -1 l-95 -104 l142 -41 l124 82 l52 -77 l-253 -169 l281 58 l-14 36 l88 35 l87 -219 l-87 -35 l-38 94 ZM136 1 l120 193 l80 -50 l-120 -192 l-80 49 ZM683 121 l72 62 l118 -136 l-71 -63 l-119 137 Z" /><glyph glyph-name="uni7ED9" unicode="&#x7ed9;" d="M525 -68 l-55 37 l-37 266 l49 54 l353 -20 l43 -57 l-48 -200 l-37 -37 l-268 -43 ZM362 189 l-230 11 l-37 74 l124 184 l-129 37 l-16 82 l213 185 l61 -72 l-148 -128 l107 -33 l26 -71 l-113 -168 l145 -6 l-3 -95 ZM678 677 l249 -132 l-45 -83 l-286 151 l-182 -141 l-57 75 l311 241 l57 -75 l-47 -36 ZM848 350 l-394 14 l3 94 l395 -14 l-4 -94 ZM534 192 l23 -160 l190 32 l26 114 l-239 14 ZM132 -60 l-44 83 l254 132 l43 -83 l-253 -132 Z" /><glyph glyph-name="uni7EDF" unicode="&#x7edf;" d="M855 304 l-19 63 l-50 -4 l-7 -249 l145 -57 l-34 -88 l-178 69 l-30 46 l10 270 l-103 -9 l-108 -404 l-90 23 l98 372 l-58 -5 l-45 71 l122 191 l-111 -7 l-6 93 l207 13 l-9 75 l93 11 l10 -79 l213 14 l6 -94 l-285 -19 l-107 -164 l8 -2 l281 24 l-21 69 l90 26 l68 -222 l-90 -27 ZM341 169 l-209 25 l-33 73 l94 138 l-96 -2 l-41 73 l179 288 l80 -50 l-133 -215 l76 2 l69 102 l78 -52 l-185 -273 l132 -15 l-11 -94 ZM119 -29 l-39 86 l245 106 l37 -86 l-243 -106 Z" /><glyph glyph-name="uni7F51" unicode="&#x7f51;" d="M686 -48 l-14 92 l94 14 l52 615 l-637 -10 l35 -686 l-95 -5 l-38 735 l46 50 l740 11 l48 -51 l-60 -704 l-40 -41 l-131 -20 ZM606 276 l117 -108 l-65 -69 l-95 88 l-100 -209 l-85 40 l113 236 l-62 58 l-87 -215 l-86 35 l99 248 l-154 144 l63 69 l129 -120 l60 151 l88 -35 l-75 -184 l67 -62 l145 304 l85 -42 l-157 -329 Z" /><glyph glyph-name="uni7F6E" unicode="&#x7f6e;" d="M179 582 l-11 127 l45 51 l598 33 l50 -49 l-6 -156 l-46 -45 l-228 -2 l-4 -17 l326 8 l2 -94 l-349 -9 l-4 -15 l219 8 l49 -53 l-37 -339 l120 2 l1 -94 l-808 -11 l-1 93 l136 2 l-2 16 l-60 0 l0 80 l50 0 l-30 234 l45 52 l222 7 l3 16 l-314 -8 l-1 94 l336 8 l4 19 l-258 -2 l-47 44 ZM312 132 l2 -14 l331 0 l0 -81 l-320 1 l2 -15 l361 6 l32 296 l-431 -13 l1 -9 l370 5 l1 -80 l-361 -5 l2 -10 l339 -1 l0 -80 l-329 0 ZM654 691 l1 -55 l108 1 l2 60 l-111 -6 ZM462 634 l98 1 l-1 50 l-99 -5 l2 -46 ZM269 633 l99 1 l-2 40 l-100 -5 l3 -36 Z" /><glyph glyph-name="uni7FA4" unicode="&#x7fa4;" d="M108 565 l110 9 l23 90 l-105 14 l12 93 l303 -40 l41 -48 l-6 -88 l45 4 l7 -94 l-58 -5 l-8 -129 l-49 -43 l-168 3 l-16 -61 l234 16 l50 -51 l-20 -236 l-42 -43 l-182 -18 l-52 37 l-26 140 l-27 -109 l-91 23 l75 303 l-30 1 l1 95 l53 -1 l12 50 l-78 -6 l-8 94 ZM553 586 l192 17 l89 152 l82 -47 l-56 -95 l33 3 l9 -95 l-111 -9 l-4 -72 l107 8 l7 -94 l-120 -9 l-8 -136 l138 10 l6 -94 l-150 -11 l-10 -175 l-94 5 l10 164 l-127 -9 l-7 94 l140 10 l8 135 l-119 -8 l-6 94 l131 9 l5 71 l-137 -11 l-8 93 ZM312 35 l100 11 l12 143 l-138 -10 l26 -144 ZM562 741 l85 40 l60 -131 l-85 -39 l-60 130 ZM381 423 l4 70 l-92 -8 l-15 -60 l103 -2 ZM335 652 l-18 -70 l75 6 l4 56 l-61 8 Z" /><glyph glyph-name="uni800C" unicode="&#x800c;" d="M566 -32 l1 466 l-139 -9 l-1 -454 l-95 0 l1 448 l-138 -9 l18 -376 l-95 -4 l-21 423 l45 50 l170 10 l43 106 l-239 -16 l-6 95 l783 53 l8 -95 l-440 -30 l-44 -106 l434 26 l51 -50 l-24 -466 l-56 -45 l-129 24 l18 94 l75 -14 l19 360 l-143 -9 l-1 -472 l-95 0 Z" /><glyph glyph-name="uni80FD" unicode="&#x80fd;" d="M443 -63 l1 101 l-179 14 l8 94 l172 -15 l2 248 l-224 -17 l2 -63 l184 25 l13 -94 l-194 -26 l7 -239 l-95 -3 l-7 229 l-36 -5 l-13 94 l47 6 l-3 119 l44 49 l318 22 l52 -47 l-5 -493 l-94 1 ZM615 -25 l-38 400 l93 10 l18 -190 l171 125 l56 -76 l-216 -158 l5 -51 l194 34 l16 -93 l-244 -42 l-55 41 ZM633 402 l-45 47 l0 280 l94 0 l0 -101 l150 77 l42 -84 l-192 -99 l0 -28 l231 -12 l-5 -95 l-275 15 ZM144 574 l86 212 l88 -35 l-60 -147 l175 3 l-14 68 l93 20 l26 -124 l-46 -57 l-303 -5 l-45 65 Z" /><glyph glyph-name="uni81F3" unicode="&#x81f3;" d="M107 726 l715 42 l5 -93 l-444 -27 l-93 -185 l396 61 l-40 54 l75 57 l171 -225 l-76 -57 l-65 86 l-221 -34 l-3 -124 l248 19 l6 -95 l-256 -19 l-3 -135 l338 -8 l-2 -93 l-750 16 l3 94 l317 -7 l3 126 l-240 -18 l-8 94 l250 19 l3 116 l-221 -34 l-49 69 l108 217 l-162 -10 l-5 94 Z" /><glyph glyph-name="uni865A" unicode="&#x865a;" d="M161 -75 l-86 38 l91 199 l-22 396 l44 50 l256 15 l-4 169 l95 3 l1 -41 l208 19 l9 -93 l-215 -21 l1 -31 l339 20 l47 -63 l-50 -128 l-89 35 l24 58 l-570 -33 l20 -361 l-4 -23 l-95 -208 ZM709 33 l12 0 l88 178 l84 -41 l-67 -134 l97 2 l2 -95 l-631 -15 l-1 95 l77 2 l-94 122 l75 58 l94 -124 l-4 140 l95 4 l6 -196 l73 2 l18 232 l93 -7 l-17 -223 ZM516 377 l3 -16 l279 34 l11 -94 l-325 -40 l-51 40 l-10 59 l-93 -17 l-16 93 l94 17 l-7 47 l94 13 l6 -43 l234 43 l16 -92 l-235 -44 Z" /><glyph glyph-name="uni878D" unicode="&#x878d;" d="M569 71 l106 23 l-1 135 l-49 -5 l-51 40 l-50 320 l42 55 l104 10 l-1 105 l93 1 l1 -96 l87 9 l51 -52 l-22 -326 l-43 -44 l-68 -7 l1 -125 l34 7 l-13 73 l92 17 l43 -222 l-93 -18 l-11 57 l-234 -49 l-18 92 ZM429 -35 l23 303 l-280 7 l12 -312 l-94 -3 l-14 363 l49 48 l380 -11 l46 -51 l-29 -351 l-93 7 ZM199 383 l-43 28 l-50 124 l38 64 l298 42 l54 -52 l-20 -170 l-47 -41 l-230 5 ZM211 133 l31 3 l-40 65 l82 49 l29 -50 l39 64 l80 -49 l-40 -65 l29 3 l9 -95 l-65 -6 l17 -81 l-92 -18 l-19 90 l-51 -4 l-9 94 ZM117 720 l352 46 l12 -92 l-351 -48 l-13 94 ZM387 473 l8 66 l-179 -25 l16 -39 l155 -2 ZM764 564 l3 -230 l20 2 l17 232 l-40 -4 ZM660 323 l13 1 l-2 230 l-46 -4 l35 -227 Z" /><glyph glyph-name="uni884C" unicode="&#x884c;" d="M411 492 l490 20 l4 -93 l-72 -3 l-42 -422 l-51 -42 l-271 28 l10 94 l223 -24 l36 362 l-323 -13 l-4 93 ZM96 356 l240 206 l61 -71 l-102 -88 l22 -451 l-93 -3 l-19 377 l-48 -41 l-61 71 ZM441 615 l0 95 l418 0 l0 -95 l-418 0 ZM99 591 l240 180 l56 -75 l-240 -180 l-56 75 Z" /><glyph glyph-name="uni8BBE" unicode="&#x8bbe;" d="M874 -52 l-268 152 l-191 -162 l-61 73 l164 138 l-99 57 l46 82 l130 -74 l119 101 l-324 28 l9 94 l436 -39 l27 -82 l-179 -151 l239 -135 l-48 -82 ZM474 475 l-94 8 l23 234 l44 43 l331 23 l51 -43 l9 -167 l69 7 l8 -94 l-118 -10 l-50 45 l-10 165 l-244 -18 l-19 -193 ZM208 -65 l-71 47 l75 435 l-133 10 l8 94 l183 -14 l43 -55 l-66 -382 l68 42 l50 -80 l-157 -97 ZM278 563 l-179 139 l58 74 l178 -138 l-57 -75 Z" /><glyph glyph-name="uni8BE5" unicode="&#x8be5;" d="M587 582 l-87 -137 l95 -31 l124 155 l73 -59 l-362 -455 l-74 59 l176 221 l-120 39 l-25 70 l82 128 l-93 -8 l-9 93 l166 15 l2 3 l4 -3 l31 3 l-38 87 l87 39 l51 -117 l235 21 l9 -94 l-327 -29 ZM331 -39 l-191 14 l-43 61 l127 385 l-138 25 l18 93 l190 -34 l36 -61 l-124 -379 l131 -10 l-6 -94 ZM725 153 l181 -151 l-60 -72 l-185 153 l-147 -164 l-70 62 l366 409 l71 -63 l-156 -174 ZM254 560 l-105 162 l78 52 l105 -163 l-78 -51 Z" /><glyph glyph-name="uni8BF7" unicode="&#x8bf7;" d="M450 -82 l-20 239 l-45 -1 l-4 95 l41 1 l-6 73 l46 51 l395 15 l49 -47 l0 -341 l-35 -45 l-124 -33 l-23 91 l88 23 l0 15 l-278 -7 l10 -122 l-94 -7 ZM696 546 l0 -42 l219 0 l0 -94 l-533 0 l0 94 l220 0 l0 38 l-155 -7 l-5 94 l160 7 l0 23 l-201 -15 l-7 95 l208 15 l0 49 l94 0 l0 -42 l194 14 l7 -94 l-201 -15 l0 -26 l146 6 l5 -93 l-151 -7 ZM222 -66 l-60 55 l87 432 l-163 35 l20 93 l208 -46 l36 -55 l-79 -402 l81 24 l27 -90 l-157 -46 ZM525 160 l1 -19 l286 7 l0 147 l-297 -11 l2 -29 l248 8 l4 -94 l-244 -9 ZM279 580 l-163 100 l49 80 l164 -100 l-50 -80 Z" /><glyph glyph-name="uni8D26" unicode="&#x8d26;" d="M433 259 l-94 2 l12 414 l-190 -12 l16 -345 l68 213 l90 -27 l-179 -566 l-90 28 l102 321 l-84 -3 l-19 421 l44 49 l287 19 l50 -48 l-13 -466 ZM585 -61 l-65 44 l6 353 l-51 -6 l-11 94 l64 8 l7 351 l94 -2 l-6 -338 l297 36 l11 -94 l-310 -38 l-5 -294 l112 45 l35 -88 l-178 -71 ZM853 -40 l-192 346 l83 45 l191 -347 l-82 -44 ZM403 -55 l-154 261 l81 48 l154 -263 l-81 -46 ZM728 486 l-75 58 l155 201 l75 -57 l-155 -202 Z" /><glyph glyph-name="uni8D44" unicode="&#x8d44;" d="M650 577 l193 -89 l-40 -85 l-223 103 l-98 -100 l-68 66 l142 143 l-129 -9 l-42 76 l89 116 l75 -56 l-25 -34 l355 26 l46 -65 l-50 -116 l-86 38 l19 43 l-145 -11 l17 -16 l-30 -30 ZM797 121 l-94 15 l26 160 l-480 -8 l38 -136 l-90 -25 l-54 195 l44 59 l597 10 l48 -55 l-35 -215 ZM539 162 l275 -140 l-44 -84 l-324 166 l-291 -183 l-50 80 l444 280 l51 -80 l-61 -39 ZM104 391 l-30 90 l234 77 l30 -90 l-234 -77 ZM277 582 l-182 76 l38 86 l180 -76 l-36 -86 Z" /><glyph glyph-name="uni8D85" unicode="&#x8d85;" d="M90 -8 l34 369 l93 -9 l-26 -289 l149 65 l26 4 l549 -79 l-14 -93 l-535 77 l-211 -92 l-65 47 ZM492 417 l82 243 l-59 -3 l-5 94 l326 16 l49 -52 l-38 -303 l-66 -36 l-102 47 l40 85 l43 -20 l23 182 l-110 -5 l-94 -278 l-89 30 ZM529 131 l-44 45 l-5 161 l51 49 l301 -30 l42 -59 l-40 -150 l-49 -35 l-256 19 ZM124 671 l130 11 l0 93 l93 0 l0 -85 l85 7 l9 -95 l-94 -8 l0 -60 l142 14 l8 -93 l-401 -39 l-10 94 l168 16 l0 60 l-123 -10 l-7 95 ZM274 225 l-10 165 l93 6 l7 -101 l70 27 l35 -87 l-132 -52 l-63 42 ZM752 208 l17 59 l-194 20 l2 -65 l175 -14 Z" /><glyph glyph-name="uni8DF3" unicode="&#x8df3;" d="M101 420 l-29 245 l39 52 l212 35 l55 -47 l-5 -259 l-41 -46 l-35 -4 l6 -47 l70 17 l23 -91 l-82 -21 l16 -137 l60 24 l33 -87 l-253 -100 l-64 42 l-9 290 l94 3 l7 -223 l41 16 l-36 303 l-50 -6 l-52 41 ZM688 40 l-30 46 l30 680 l94 -4 l-6 -133 l61 32 l45 -84 l-110 -59 l-6 -142 l161 -80 l-41 -85 l-125 62 l-6 -157 l130 -50 l-34 -87 l-163 61 ZM388 594 l80 50 l42 -68 l-5 145 l95 4 l20 -551 l-8 -27 l-115 -181 l-79 50 l107 169 l-2 55 l-81 -69 l-61 71 l137 118 l-4 125 l-42 -26 l-84 135 ZM188 477 l92 12 l3 161 l-112 -19 l17 -154 Z" /><glyph glyph-name="uni8F7D" unicode="&#x8f7d;" d="M477 632 l-148 7 l-4 -56 l236 29 l-40 160 l91 24 l43 -173 l87 11 l-53 122 l86 39 l65 -149 l62 8 l12 -94 l-236 -28 l57 -225 l94 147 l78 -50 l-141 -221 l30 -119 l88 57 l51 -79 l-144 -93 l-71 28 l-24 96 l-87 -137 l-79 51 l135 210 l-81 323 l-339 -41 l65 -29 l-20 -43 l216 23 l10 -94 l-271 -28 l-31 -67 l111 0 l-1 58 l95 1 l1 -59 l110 0 l0 -95 l-108 0 l0 -39 l108 19 l16 -92 l-122 -22 l2 -86 l-95 -2 l-2 72 l-209 -37 l-16 92 l224 39 l-1 56 l-186 0 l-44 68 l38 83 l-29 -3 l-10 93 l85 9 l37 80 l-141 -17 l-11 92 l165 20 l4 73 l-113 6 l5 95 l114 -6 l3 40 l95 -7 l-3 -38 l146 -8 l-5 -94 Z" /><glyph glyph-name="uni8F85" unicode="&#x8f85;" d="M596 -49 l-7 149 l-86 -7 l0 -145 l-94 0 l0 534 l49 46 l111 -5 l-2 39 l-172 12 l8 95 l160 -12 l-5 107 l93 5 l5 -118 l125 -9 l-75 82 l69 64 l88 -95 l-58 -53 l114 -8 l-6 -94 l-252 17 l1 -36 l177 -7 l45 -43 l41 -460 l-32 -48 l-90 -30 l-30 88 l55 19 l-8 83 l-138 -12 l8 -153 l-94 -5 ZM320 286 l-10 -88 l76 9 l12 -94 l-99 -12 l-16 -150 l-94 10 l14 129 l-103 -12 l-11 94 l124 14 l11 97 l-99 -2 l-47 58 l50 202 l-45 -3 l-8 94 l76 5 l24 97 l91 -22 l-17 -67 l110 8 l7 -94 l-140 -11 l-42 -171 l51 1 l11 100 l94 -10 l-10 -88 l60 2 l3 -94 l-73 -2 ZM674 280 l4 -77 l134 12 l-18 204 l-127 6 l2 -50 l90 8 l9 -94 l-94 -9 ZM503 187 l82 8 l-4 76 l-78 -7 l0 -77 ZM503 359 l74 7 l-3 63 l-71 3 l0 -73 Z" /><glyph glyph-name="uni8F93" unicode="&#x8f93;" d="M352 306 l-46 3 l-1 -78 l28 10 l33 -89 l-62 -22 l-1 -200 l-93 1 l1 165 l-136 -49 l-32 89 l168 61 l1 119 l-127 10 l-42 64 l70 182 l-60 -7 l-11 93 l109 14 l39 101 l88 -32 l-21 -56 l93 12 l12 -94 l-143 -18 l-64 -170 l57 -4 l1 106 l95 0 l-1 -113 l53 -4 l-8 -94 ZM557 -85 l-45 81 l81 44 l-12 153 l-94 -17 l0 -39 l63 9 l13 -93 l-76 -11 l0 -127 l-95 0 l0 114 l-19 -2 l-12 94 l31 4 l0 253 l48 48 l175 0 l47 -44 l28 -366 l-25 -45 l-108 -56 ZM691 707 l267 -147 l-46 -83 l-288 160 l-83 -86 l197 19 l9 -94 l-201 -19 l-9 90 l-111 -116 l-68 65 l293 307 l69 -65 l-29 -31 ZM842 -82 l-112 15 l12 93 l63 -9 l20 405 l93 -5 l-22 -456 l-54 -43 ZM697 80 l-6 281 l94 2 l7 -281 l-95 -2 ZM487 272 l87 16 l-3 44 l-84 0 l0 -60 Z" /><glyph glyph-name="uni8FC7" unicode="&#x8fc7;" d="M243 154 l342 -96 l315 16 l5 -95 l-324 -16 l-15 3 l-355 100 l-46 -130 l-89 31 l166 466 l-143 33 l20 92 l196 -44 l35 -62 l-107 -298 ZM788 545 l44 -356 l-41 -52 l-204 -26 l-12 93 l159 20 l-39 310 l-298 -37 l-11 94 l297 37 l-17 141 l94 12 l17 -142 l134 17 l13 -94 l-136 -17 ZM520 233 l-103 199 l84 44 l103 -200 l-84 -43 ZM296 582 l-160 127 l59 74 l160 -127 l-59 -74 Z" /><glyph glyph-name="uni8FCE" unicode="&#x8fce;" d="M86 17 l107 122 l19 312 l-134 20 l14 94 l177 -28 l39 -49 l-20 -328 l578 -99 l-17 -94 l-592 103 l-100 -115 l-71 62 ZM606 658 l41 49 l222 25 l53 -51 l-38 -449 l-60 -41 l-88 25 l25 91 l35 -10 l27 335 l-122 -14 l13 -452 l-93 -3 l-15 495 ZM383 202 l-37 461 l33 49 l184 51 l25 -91 l-146 -40 l26 -320 l60 61 l68 -66 l-133 -134 l-80 29 ZM93 673 l31 89 l195 -67 l-31 -89 l-195 67 Z" /><glyph glyph-name="uni8FD0" unicode="&#x8fd0;" d="M234 139 l151 -101 l540 48 l8 -93 l-557 -49 l-30 8 l-139 93 l-29 -104 l-91 26 l136 480 l-156 16 l10 94 l213 -23 l40 -60 l-96 -335 ZM917 441 l-329 10 l-100 -222 l279 46 l-26 78 l89 30 l78 -230 l-90 -30 l-21 61 l-380 -61 l-50 65 l119 266 l-131 4 l3 94 l563 -18 l-4 -93 ZM805 656 l-377 7 l2 94 l377 -8 l-2 -93 ZM256 581 l-161 121 l56 76 l161 -121 l-56 -76 Z" /><glyph glyph-name="uni8FDB" unicode="&#x8fdb;" d="M773 331 l17 -233 l-94 -7 l-16 219 l-156 -34 l-13 -183 l-93 6 l11 156 l-89 -20 l-20 93 l116 25 l13 185 l-119 0 l0 95 l126 0 l9 121 l94 -8 l-9 -113 l108 0 l-9 130 l94 6 l9 -136 l114 0 l0 -95 l-107 0 l8 -113 l108 24 l20 -91 l-122 -27 ZM230 68 l700 -18 l-2 -94 l-758 20 l-20 -33 l-80 50 l121 190 l-75 95 l-5 52 l78 136 l-119 20 l16 93 l185 -31 l33 -70 l-94 -167 l76 -96 l3 -55 l-59 -92 ZM531 374 l143 31 l-10 133 l-121 0 l-12 -164 ZM245 603 l-134 98 l57 77 l133 -100 l-56 -75 Z" /><glyph glyph-name="uni9001" unicode="&#x9001;" d="M363 170 l92 149 l-80 3 l3 93 l134 -5 l60 97 l-194 0 l0 95 l109 0 l-62 97 l78 51 l68 -103 l-69 -45 l189 0 l71 171 l88 -36 l-57 -135 l75 0 l0 -95 l-185 0 l-63 -101 l290 -11 l-3 -93 l-343 13 l-121 -195 l-80 50 ZM82 18 l103 84 l51 311 l-116 26 l21 93 l159 -38 l36 -54 l-52 -323 l634 -77 l-12 -92 l-664 78 l-101 -79 l-59 71 ZM147 707 l75 58 l119 -152 l-75 -58 l-119 152 ZM671 237 l71 61 l119 -140 l-71 -61 l-119 140 Z" /><glyph glyph-name="uni90AE" unicode="&#x90ae;" d="M182 -57 l-49 40 l-37 279 l-30 -3 l-11 94 l29 3 l-32 242 l48 53 l184 -2 l1 129 l93 0 l-1 -130 l140 -2 l46 -48 l-16 -602 l-46 -45 l-319 -8 ZM697 -45 l-94 3 l12 735 l51 46 l215 -18 l41 -61 l-80 -247 l105 -138 l0 -57 l-147 -185 l-74 58 l124 157 l-98 127 l-7 44 l70 214 l-107 8 l-11 -686 ZM377 553 l0 -161 l63 8 l12 -94 l-75 -9 l0 -255 l76 2 l15 509 l-91 0 ZM177 368 l106 13 l1 173 l-132 2 l25 -188 ZM222 38 l60 1 l1 246 l-93 -11 l32 -236 Z" /><glyph glyph-name="uni914D" unicode="&#x914d;" d="M88 180 l37 3 l-23 268 l41 51 l83 9 l-10 146 l-89 4 l4 94 l392 -15 l-4 -94 l-72 2 l-7 -114 l66 7 l51 -46 l0 -465 l-43 -48 l-321 -27 l-51 43 l-8 91 l-36 -3 l-10 94 ZM799 350 l1 17 l-124 1 l-5 -283 l117 -8 l31 118 l92 -24 l-42 -155 l-48 -35 l-202 12 l-43 48 l6 375 l47 46 l175 0 l10 200 l-237 -41 l-16 92 l296 52 l55 -49 l-19 -371 l-94 5 ZM216 225 l3 -32 l224 22 l10 -94 l-225 -22 l4 -46 l231 19 l0 170 l-85 9 l-40 46 l7 132 l-24 -3 l7 -108 l-1 -13 l-25 -102 l-86 22 ZM314 520 l36 4 l7 128 l-51 2 l8 -134 ZM216 225 l23 95 l-7 96 l-33 -3 l17 -188 ZM435 439 l-6 -104 l34 -3 l0 110 l-28 -3 Z" /><glyph glyph-name="uni955C" unicode="&#x955c;" d="M774 138 l7 -93 l130 24 l17 -93 l-182 -34 l-56 43 l-11 147 l-57 -4 l-105 -204 l-84 43 l79 153 l-9 0 l-50 45 l-3 70 l-27 -1 l-3 95 l26 1 l-3 85 l45 49 l353 8 l49 -50 l-15 -236 l-44 -44 l-57 -4 ZM842 642 l-28 -47 l91 5 l5 -95 l-494 -23 l-5 94 l122 6 l-22 48 l-78 -3 l-3 94 l195 7 l-8 53 l94 14 l8 -64 l167 6 l2 -93 l-46 -2 ZM347 190 l-90 9 l-20 -120 l110 -65 l-47 -82 l-139 82 l-23 48 l25 147 l-70 8 l10 94 l76 -8 l16 93 l-50 -4 l-8 94 l244 23 l9 -94 l-99 -10 l-19 -112 l85 -9 l-10 -94 ZM254 680 l134 -11 l-7 -94 l-185 14 l-44 -70 l-80 50 l144 227 l80 -51 l-42 -65 ZM545 239 l1 -22 l237 17 l9 143 l-254 -6 l2 -37 l195 8 l3 -95 l-193 -8 ZM634 587 l67 3 l29 48 l-117 -4 l21 -47 Z" /><glyph glyph-name="uni95F4" unicode="&#x95f4;" d="M352 108 l-48 45 l-6 136 l-46 -3 l-7 94 l49 3 l-5 109 l45 50 l354 16 l50 -50 l-15 -352 l-48 -45 l-323 -3 ZM719 -75 l-61 71 l162 140 l-33 489 l-450 -7 l-2 95 l495 7 l48 -44 l39 -558 l-17 -38 l-181 -155 ZM178 -49 l-94 4 l21 637 l94 -4 l-21 -637 ZM385 450 l3 -61 l209 13 l6 -94 l-211 -13 l5 -92 l233 2 l12 256 l-257 -11 ZM245 575 l-117 162 l76 56 l118 -163 l-77 -55 Z" /><glyph glyph-name="uni9686" unicode="&#x9686;" d="M359 437 l105 54 l-98 18 l16 92 l219 -40 l86 44 l-267 17 l-40 68 l44 86 l83 -42 l-11 -23 l369 -24 l19 -88 l-129 -66 l159 -28 l-18 -94 l-280 52 l-62 -31 l283 -27 l-8 -94 l-108 10 l-4 -27 l110 11 l9 -94 l-132 -13 l-6 -41 l129 5 l4 -93 l-146 -6 l-3 -26 l233 0 l0 -93 l-575 0 l0 93 l246 0 l3 22 l-73 -3 l-4 94 l90 3 l5 36 l-128 -13 l-15 -49 l-90 28 l61 199 l90 -28 l-16 -52 l112 11 l6 45 l-135 14 l5 59 l-96 -49 l-42 83 ZM86 -55 l0 720 l40 46 l160 26 l55 -45 l15 -545 l-24 -42 l-80 -43 l-45 83 l54 29 l-14 462 l-66 -11 l0 -680 l-95 0 Z" /><glyph glyph-name="uni96C6" unicode="&#x96c6;" d="M350 692 l229 11 l-30 44 l78 54 l63 -92 l218 11 l5 -95 l-207 -10 l-2 -16 l155 7 l4 -95 l-170 -8 l-3 -21 l190 2 l0 -94 l-201 -2 l-5 -35 l219 -4 l-1 -95 l-317 6 l1 -50 l337 27 l7 -93 l-207 -17 l190 -107 l-48 -81 l-191 107 l45 81 l-132 -11 l2 -169 l-94 -1 l-2 163 l-119 -10 l-196 -180 l-64 70 l107 98 l-94 -7 l-8 94 l374 29 l-1 59 l-169 3 l1 95 l267 -5 l3 32 l-197 -2 l-2 94 l210 2 l2 18 l-229 -9 l-4 94 l244 11 l2 16 l-256 -12 l-4 93 ZM148 287 l26 327 l-62 -22 l-33 89 l221 80 l33 -89 l-62 -23 l-29 -369 l-94 7 Z" /><glyph glyph-name="uni975E" unicode="&#x975e;" d="M675 500 l-8 -102 l132 19 l12 -95 l-151 -21 l-9 -114 l256 17 l7 -95 l-271 -18 l-11 -150 l-95 7 l10 137 l-28 -2 l-7 95 l43 3 l46 597 l95 -7 l-14 -176 l180 -8 l-3 -94 l-184 7 ZM86 122 l227 45 l-4 187 l-190 -38 l-19 92 l207 42 l-2 88 l-190 25 l12 95 l176 -23 l-2 133 l95 3 l16 -802 l-95 -1 l-2 102 l-210 -41 l-19 93 Z" /><glyph glyph-name="uni987B" unicode="&#x987b;" d="M697 690 l-44 -112 l222 -5 l45 -54 l-50 -335 l-92 14 l41 283 l-305 6 l16 -316 l-94 -5 l-20 367 l49 50 l87 -2 l42 103 l-161 -8 l-5 95 l443 22 l5 -94 l-179 -9 ZM661 185 l222 -182 l-60 -71 l-208 169 l-97 -175 l-82 43 l250 452 l82 -45 l-107 -191 ZM174 -46 l-68 65 l234 240 l68 -66 l-234 -239 ZM160 233 l-71 61 l214 252 l71 -62 l-214 -251 ZM141 511 l-61 72 l214 179 l61 -73 l-214 -178 Z" /><glyph glyph-name="uniFF01" unicode="&#xff01;" d="M185 234 l-106 13 l66 514 l107 -16 l-67 -511 ZM73 -34 l-13 159 l106 9 l13 -160 l-106 -8 Z" /><glyph glyph-name="uniFF0C" unicode="&#xff0c;" d="M500 -103 l-70 37 l73 130 l-67 28 l30 75 l109 -44 l20 -57 l-95 -169 Z" /></font>
</defs>
</svg>
